<mxfile host="65bd71144e">
    <diagram name="ページ1" id="wdXBag7NcmLRrbB8cPSW">
        <mxGraphModel dx="4760" dy="4510" grid="1" gridSize="10" guides="1" tooltips="1" connect="1" arrows="1" fold="1" page="1" pageScale="1" pageWidth="827" pageHeight="1169" math="0" shadow="0">
            <root>
                <mxCell id="0"/>
                <mxCell id="1" parent="0"/>
                <UserObject label="" mermaidData="{&#xa;  &quot;data&quot;: &quot;flowchart TD\n    A[Start Process]\n    B[Retrieve pending mission id from database]\n    C{Pending task found?}\n    D[Exit and wait 10 seconds]\n    E[Call MissionWorks API with mission id]\n    F[Receive runtime id from response]\n    G[Store runtime id mapping globally]\n    H[Clear previous callback response]\n    I[Disable Smart Charge turn off]\n    J[Begin task execution loop]\n    K[Wait 10 seconds]\n    L[Get callback response using runtime id]\n    M{Callback response equals Success?}\n    N[Update task status to COMPLETED]\n    O[Log task completion and exit loop]\n    P[Log waiting status and continue loop]\n    Q[Get AMR status via vehicles API]\n    R{Is battery &lt;= 10?}\n    S[Retrieve SMART_CHARGE configuration]\n    T[Wait until battery is charged to canChargeBatteryValue percent]\n    U[Check AMR workStatus and abnormalStatus]\n    V{AMR is normal? workStatus equals 1 and abnormalStatus equals 1}\n    W[Call Resume Task API with runtime id]\n    X[Call Pause Task API with runtime id]\n    Y[Loop back to task execution loop]\n    Z[After task completes, check battery level]\n    AA{Is battery &lt;= 50?}\n    AB[Enable Smart Charge turn on]\n    AC[Continue monitoring for new tasks]\n    \n    A --&gt; B\n    B --&gt; C\n    C -- No --&gt; D\n    C -- Yes --&gt; E\n    E --&gt; F\n    F --&gt; G\n    G --&gt; H\n    H --&gt; I\n    I --&gt; J\n    J --&gt; K\n    K --&gt; L\n    L --&gt; M\n    M -- Yes --&gt; N\n    N --&gt; O\n    M -- No --&gt; P\n    P --&gt; Q\n    Q --&gt; R\n    R -- Yes --&gt; S\n    S --&gt; T\n    T --&gt; U\n    R -- No --&gt; U\n    U --&gt; V\n    V -- Yes --&gt; W\n    V -- No --&gt; X\n    W --&gt; Y\n    X --&gt; Y\n    Y --&gt; J\n    O --&gt; Z\n    Z --&gt; AA\n    AA -- Yes --&gt; AB\n    AA -- No --&gt; AC\n    AB --&gt; AC\n    AC --&gt; B\n&quot;&#xa;}" id="4">
                    <mxCell style="shape=image;noLabel=1;verticalAlign=top;imageAspect=1;image=data:image/svg+xml,PHN2ZyBhcmlhLXJvbGVkZXNjcmlwdGlvbj0iZmxvd2NoYXJ0LXYyIiByb2xlPSJncmFwaGljcy1kb2N1bWVudCBkb2N1bWVudCIgdmlld0JveD0iMCAwIDkzMy4zMTQwMjU4Nzg5MDYyIDMwNDEuMTI1IiBzdHlsZT0ibWF4LXdpZHRoOiA5MzMuMzE0MDI1ODc4OTA2MnB4OyIgY2xhc3M9ImZsb3djaGFydCIgeG1sbnM9Imh0dHA6Ly93d3cudzMub3JnLzIwMDAvc3ZnIiB3aWR0aD0iMTAwJSIgaWQ9ImdlTWVybWFpZE91dHB1dC0xNzQxOTMzODA2NDc4Ij48c3R5bGU+I2dlTWVybWFpZE91dHB1dC0xNzQxOTMzODA2NDc4e2ZvbnQtZmFtaWx5OiJ0cmVidWNoZXQgbXMiLHZlcmRhbmEsYXJpYWwsc2Fucy1zZXJpZjtmb250LXNpemU6MTZweDtmaWxsOiMwMDAwMDA7fSNnZU1lcm1haWRPdXRwdXQtMTc0MTkzMzgwNjQ3OCAuZXJyb3ItaWNvbntmaWxsOiM1NTIyMjI7fSNnZU1lcm1haWRPdXRwdXQtMTc0MTkzMzgwNjQ3OCAuZXJyb3ItdGV4dHtmaWxsOiM1NTIyMjI7c3Ryb2tlOiM1NTIyMjI7fSNnZU1lcm1haWRPdXRwdXQtMTc0MTkzMzgwNjQ3OCAuZWRnZS10aGlja25lc3Mtbm9ybWFse3N0cm9rZS13aWR0aDoxcHg7fSNnZU1lcm1haWRPdXRwdXQtMTc0MTkzMzgwNjQ3OCAuZWRnZS10aGlja25lc3MtdGhpY2t7c3Ryb2tlLXdpZHRoOjMuNXB4O30jZ2VNZXJtYWlkT3V0cHV0LTE3NDE5MzM4MDY0NzggLmVkZ2UtcGF0dGVybi1zb2xpZHtzdHJva2UtZGFzaGFycmF5OjA7fSNnZU1lcm1haWRPdXRwdXQtMTc0MTkzMzgwNjQ3OCAuZWRnZS10aGlja25lc3MtaW52aXNpYmxle3N0cm9rZS13aWR0aDowO2ZpbGw6bm9uZTt9I2dlTWVybWFpZE91dHB1dC0xNzQxOTMzODA2NDc4IC5lZGdlLXBhdHRlcm4tZGFzaGVke3N0cm9rZS1kYXNoYXJyYXk6Mzt9I2dlTWVybWFpZE91dHB1dC0xNzQxOTMzODA2NDc4IC5lZGdlLXBhdHRlcm4tZG90dGVke3N0cm9rZS1kYXNoYXJyYXk6Mjt9I2dlTWVybWFpZE91dHB1dC0xNzQxOTMzODA2NDc4IC5tYXJrZXJ7ZmlsbDojNjY2O3N0cm9rZTojNjY2O30jZ2VNZXJtYWlkT3V0cHV0LTE3NDE5MzM4MDY0NzggLm1hcmtlci5jcm9zc3tzdHJva2U6IzY2Njt9I2dlTWVybWFpZE91dHB1dC0xNzQxOTMzODA2NDc4IHN2Z3tmb250LWZhbWlseToidHJlYnVjaGV0IG1zIix2ZXJkYW5hLGFyaWFsLHNhbnMtc2VyaWY7Zm9udC1zaXplOjE2cHg7fSNnZU1lcm1haWRPdXRwdXQtMTc0MTkzMzgwNjQ3OCBwe21hcmdpbjowO30jZ2VNZXJtYWlkT3V0cHV0LTE3NDE5MzM4MDY0NzggLmxhYmVse2ZvbnQtZmFtaWx5OiJ0cmVidWNoZXQgbXMiLHZlcmRhbmEsYXJpYWwsc2Fucy1zZXJpZjtjb2xvcjojMDAwMDAwO30jZ2VNZXJtYWlkT3V0cHV0LTE3NDE5MzM4MDY0NzggLmNsdXN0ZXItbGFiZWwgdGV4dHtmaWxsOiMzMzM7fSNnZU1lcm1haWRPdXRwdXQtMTc0MTkzMzgwNjQ3OCAuY2x1c3Rlci1sYWJlbCBzcGFue2NvbG9yOiMzMzM7fSNnZU1lcm1haWRPdXRwdXQtMTc0MTkzMzgwNjQ3OCAuY2x1c3Rlci1sYWJlbCBzcGFuIHB7YmFja2dyb3VuZC1jb2xvcjp0cmFuc3BhcmVudDt9I2dlTWVybWFpZE91dHB1dC0xNzQxOTMzODA2NDc4IC5sYWJlbCB0ZXh0LCNnZU1lcm1haWRPdXRwdXQtMTc0MTkzMzgwNjQ3OCBzcGFue2ZpbGw6IzAwMDAwMDtjb2xvcjojMDAwMDAwO30jZ2VNZXJtYWlkT3V0cHV0LTE3NDE5MzM4MDY0NzggLm5vZGUgcmVjdCwjZ2VNZXJtYWlkT3V0cHV0LTE3NDE5MzM4MDY0NzggLm5vZGUgY2lyY2xlLCNnZU1lcm1haWRPdXRwdXQtMTc0MTkzMzgwNjQ3OCAubm9kZSBlbGxpcHNlLCNnZU1lcm1haWRPdXRwdXQtMTc0MTkzMzgwNjQ3OCAubm9kZSBwb2x5Z29uLCNnZU1lcm1haWRPdXRwdXQtMTc0MTkzMzgwNjQ3OCAubm9kZSBwYXRoe2ZpbGw6I2VlZTtzdHJva2U6Izk5OTtzdHJva2Utd2lkdGg6MXB4O30jZ2VNZXJtYWlkT3V0cHV0LTE3NDE5MzM4MDY0NzggLnJvdWdoLW5vZGUgLmxhYmVsIHRleHQsI2dlTWVybWFpZE91dHB1dC0xNzQxOTMzODA2NDc4IC5ub2RlIC5sYWJlbCB0ZXh0LCNnZU1lcm1haWRPdXRwdXQtMTc0MTkzMzgwNjQ3OCAuaW1hZ2Utc2hhcGUgLmxhYmVsLCNnZU1lcm1haWRPdXRwdXQtMTc0MTkzMzgwNjQ3OCAuaWNvbi1zaGFwZSAubGFiZWx7dGV4dC1hbmNob3I6bWlkZGxlO30jZ2VNZXJtYWlkT3V0cHV0LTE3NDE5MzM4MDY0NzggLm5vZGUgLmthdGV4IHBhdGh7ZmlsbDojMDAwO3N0cm9rZTojMDAwO3N0cm9rZS13aWR0aDoxcHg7fSNnZU1lcm1haWRPdXRwdXQtMTc0MTkzMzgwNjQ3OCAucm91Z2gtbm9kZSAubGFiZWwsI2dlTWVybWFpZE91dHB1dC0xNzQxOTMzODA2NDc4IC5ub2RlIC5sYWJlbCwjZ2VNZXJtYWlkT3V0cHV0LTE3NDE5MzM4MDY0NzggLmltYWdlLXNoYXBlIC5sYWJlbCwjZ2VNZXJtYWlkT3V0cHV0LTE3NDE5MzM4MDY0NzggLmljb24tc2hhcGUgLmxhYmVse3RleHQtYWxpZ246Y2VudGVyO30jZ2VNZXJtYWlkT3V0cHV0LTE3NDE5MzM4MDY0NzggLm5vZGUuY2xpY2thYmxle2N1cnNvcjpwb2ludGVyO30jZ2VNZXJtYWlkT3V0cHV0LTE3NDE5MzM4MDY0NzggLnJvb3QgLmFuY2hvciBwYXRoe2ZpbGw6IzY2NiFpbXBvcnRhbnQ7c3Ryb2tlLXdpZHRoOjA7c3Ryb2tlOiM2NjY7fSNnZU1lcm1haWRPdXRwdXQtMTc0MTkzMzgwNjQ3OCAuYXJyb3doZWFkUGF0aHtmaWxsOiMzMzMzMzM7fSNnZU1lcm1haWRPdXRwdXQtMTc0MTkzMzgwNjQ3OCAuZWRnZVBhdGggLnBhdGh7c3Ryb2tlOiM2NjY7c3Ryb2tlLXdpZHRoOjIuMHB4O30jZ2VNZXJtYWlkT3V0cHV0LTE3NDE5MzM4MDY0NzggLmZsb3djaGFydC1saW5re3N0cm9rZTojNjY2O2ZpbGw6bm9uZTt9I2dlTWVybWFpZE91dHB1dC0xNzQxOTMzODA2NDc4IC5lZGdlTGFiZWx7YmFja2dyb3VuZC1jb2xvcjp3aGl0ZTt0ZXh0LWFsaWduOmNlbnRlcjt9I2dlTWVybWFpZE91dHB1dC0xNzQxOTMzODA2NDc4IC5lZGdlTGFiZWwgcHtiYWNrZ3JvdW5kLWNvbG9yOndoaXRlO30jZ2VNZXJtYWlkT3V0cHV0LTE3NDE5MzM4MDY0NzggLmVkZ2VMYWJlbCByZWN0e29wYWNpdHk6MC41O2JhY2tncm91bmQtY29sb3I6d2hpdGU7ZmlsbDp3aGl0ZTt9I2dlTWVybWFpZE91dHB1dC0xNzQxOTMzODA2NDc4IC5sYWJlbEJrZ3tiYWNrZ3JvdW5kLWNvbG9yOnJnYmEoMjU1LCAyNTUsIDI1NSwgMC41KTt9I2dlTWVybWFpZE91dHB1dC0xNzQxOTMzODA2NDc4IC5jbHVzdGVyIHJlY3R7ZmlsbDpoc2woMCwgMCUsIDk4LjkyMTU2ODYyNzUlKTtzdHJva2U6IzcwNzA3MDtzdHJva2Utd2lkdGg6MXB4O30jZ2VNZXJtYWlkT3V0cHV0LTE3NDE5MzM4MDY0NzggLmNsdXN0ZXIgdGV4dHtmaWxsOiMzMzM7fSNnZU1lcm1haWRPdXRwdXQtMTc0MTkzMzgwNjQ3OCAuY2x1c3RlciBzcGFue2NvbG9yOiMzMzM7fSNnZU1lcm1haWRPdXRwdXQtMTc0MTkzMzgwNjQ3OCBkaXYubWVybWFpZFRvb2x0aXB7cG9zaXRpb246YWJzb2x1dGU7dGV4dC1hbGlnbjpjZW50ZXI7bWF4LXdpZHRoOjIwMHB4O3BhZGRpbmc6MnB4O2ZvbnQtZmFtaWx5OiJ0cmVidWNoZXQgbXMiLHZlcmRhbmEsYXJpYWwsc2Fucy1zZXJpZjtmb250LXNpemU6MTJweDtiYWNrZ3JvdW5kOmhzbCgtMTYwLCAwJSwgOTMuMzMzMzMzMzMzMyUpO2JvcmRlcjoxcHggc29saWQgIzcwNzA3MDtib3JkZXItcmFkaXVzOjJweDtwb2ludGVyLWV2ZW50czpub25lO3otaW5kZXg6MTAwO30jZ2VNZXJtYWlkT3V0cHV0LTE3NDE5MzM4MDY0NzggLmZsb3djaGFydFRpdGxlVGV4dHt0ZXh0LWFuY2hvcjptaWRkbGU7Zm9udC1zaXplOjE4cHg7ZmlsbDojMDAwMDAwO30jZ2VNZXJtYWlkT3V0cHV0LTE3NDE5MzM4MDY0NzggcmVjdC50ZXh0e2ZpbGw6bm9uZTtzdHJva2Utd2lkdGg6MDt9I2dlTWVybWFpZE91dHB1dC0xNzQxOTMzODA2NDc4IC5pY29uLXNoYXBlLCNnZU1lcm1haWRPdXRwdXQtMTc0MTkzMzgwNjQ3OCAuaW1hZ2Utc2hhcGV7YmFja2dyb3VuZC1jb2xvcjp3aGl0ZTt0ZXh0LWFsaWduOmNlbnRlcjt9I2dlTWVybWFpZE91dHB1dC0xNzQxOTMzODA2NDc4IC5pY29uLXNoYXBlIHAsI2dlTWVybWFpZE91dHB1dC0xNzQxOTMzODA2NDc4IC5pbWFnZS1zaGFwZSBwe2JhY2tncm91bmQtY29sb3I6d2hpdGU7cGFkZGluZzoycHg7fSNnZU1lcm1haWRPdXRwdXQtMTc0MTkzMzgwNjQ3OCAuaWNvbi1zaGFwZSByZWN0LCNnZU1lcm1haWRPdXRwdXQtMTc0MTkzMzgwNjQ3OCAuaW1hZ2Utc2hhcGUgcmVjdHtvcGFjaXR5OjAuNTtiYWNrZ3JvdW5kLWNvbG9yOndoaXRlO2ZpbGw6d2hpdGU7fSNnZU1lcm1haWRPdXRwdXQtMTc0MTkzMzgwNjQ3OCA6cm9vdHstLW1lcm1haWQtZm9udC1mYW1pbHk6InRyZWJ1Y2hldCBtcyIsdmVyZGFuYSxhcmlhbCxzYW5zLXNlcmlmO308L3N0eWxlPjxnPjxtYXJrZXIgb3JpZW50PSJhdXRvIiBtYXJrZXJIZWlnaHQ9IjgiIG1hcmtlcldpZHRoPSI4IiBtYXJrZXJVbml0cz0idXNlclNwYWNlT25Vc2UiIHJlZlk9IjUiIHJlZlg9IjUiIHZpZXdCb3g9IjAgMCAxMCAxMCIgY2xhc3M9Im1hcmtlciBmbG93Y2hhcnQtdjIiIGlkPSJnZU1lcm1haWRPdXRwdXQtMTc0MTkzMzgwNjQ3OF9mbG93Y2hhcnQtdjItcG9pbnRFbmQiPjxwYXRoIHN0eWxlPSJzdHJva2Utd2lkdGg6IDE7IHN0cm9rZS1kYXNoYXJyYXk6IDEsIDA7IiBjbGFzcz0iYXJyb3dNYXJrZXJQYXRoIiBkPSJNIDAgMCBMIDEwIDUgTCAwIDEwIHoiPjwvcGF0aD48L21hcmtlcj48bWFya2VyIG9yaWVudD0iYXV0byIgbWFya2VySGVpZ2h0PSI4IiBtYXJrZXJXaWR0aD0iOCIgbWFya2VyVW5pdHM9InVzZXJTcGFjZU9uVXNlIiByZWZZPSI1IiByZWZYPSI0LjUiIHZpZXdCb3g9IjAgMCAxMCAxMCIgY2xhc3M9Im1hcmtlciBmbG93Y2hhcnQtdjIiIGlkPSJnZU1lcm1haWRPdXRwdXQtMTc0MTkzMzgwNjQ3OF9mbG93Y2hhcnQtdjItcG9pbnRTdGFydCI+PHBhdGggc3R5bGU9InN0cm9rZS13aWR0aDogMTsgc3Ryb2tlLWRhc2hhcnJheTogMSwgMDsiIGNsYXNzPSJhcnJvd01hcmtlclBhdGgiIGQ9Ik0gMCA1IEwgMTAgMTAgTCAxMCAwIHoiPjwvcGF0aD48L21hcmtlcj48bWFya2VyIG9yaWVudD0iYXV0byIgbWFya2VySGVpZ2h0PSIxMSIgbWFya2VyV2lkdGg9IjExIiBtYXJrZXJVbml0cz0idXNlclNwYWNlT25Vc2UiIHJlZlk9IjUiIHJlZlg9IjExIiB2aWV3Qm94PSIwIDAgMTAgMTAiIGNsYXNzPSJtYXJrZXIgZmxvd2NoYXJ0LXYyIiBpZD0iZ2VNZXJtYWlkT3V0cHV0LTE3NDE5MzM4MDY0NzhfZmxvd2NoYXJ0LXYyLWNpcmNsZUVuZCI+PGNpcmNsZSBzdHlsZT0ic3Ryb2tlLXdpZHRoOiAxOyBzdHJva2UtZGFzaGFycmF5OiAxLCAwOyIgY2xhc3M9ImFycm93TWFya2VyUGF0aCIgcj0iNSIgY3k9IjUiIGN4PSI1Ij48L2NpcmNsZT48L21hcmtlcj48bWFya2VyIG9yaWVudD0iYXV0byIgbWFya2VySGVpZ2h0PSIxMSIgbWFya2VyV2lkdGg9IjExIiBtYXJrZXJVbml0cz0idXNlclNwYWNlT25Vc2UiIHJlZlk9IjUiIHJlZlg9Ii0xIiB2aWV3Qm94PSIwIDAgMTAgMTAiIGNsYXNzPSJtYXJrZXIgZmxvd2NoYXJ0LXYyIiBpZD0iZ2VNZXJtYWlkT3V0cHV0LTE3NDE5MzM4MDY0NzhfZmxvd2NoYXJ0LXYyLWNpcmNsZVN0YXJ0Ij48Y2lyY2xlIHN0eWxlPSJzdHJva2Utd2lkdGg6IDE7IHN0cm9rZS1kYXNoYXJyYXk6IDEsIDA7IiBjbGFzcz0iYXJyb3dNYXJrZXJQYXRoIiByPSI1IiBjeT0iNSIgY3g9IjUiPjwvY2lyY2xlPjwvbWFya2VyPjxtYXJrZXIgb3JpZW50PSJhdXRvIiBtYXJrZXJIZWlnaHQ9IjExIiBtYXJrZXJXaWR0aD0iMTEiIG1hcmtlclVuaXRzPSJ1c2VyU3BhY2VPblVzZSIgcmVmWT0iNS4yIiByZWZYPSIxMiIgdmlld0JveD0iMCAwIDExIDExIiBjbGFzcz0ibWFya2VyIGNyb3NzIGZsb3djaGFydC12MiIgaWQ9ImdlTWVybWFpZE91dHB1dC0xNzQxOTMzODA2NDc4X2Zsb3djaGFydC12Mi1jcm9zc0VuZCI+PHBhdGggc3R5bGU9InN0cm9rZS13aWR0aDogMjsgc3Ryb2tlLWRhc2hhcnJheTogMSwgMDsiIGNsYXNzPSJhcnJvd01hcmtlclBhdGgiIGQ9Ik0gMSwxIGwgOSw5IE0gMTAsMSBsIC05LDkiPjwvcGF0aD48L21hcmtlcj48bWFya2VyIG9yaWVudD0iYXV0byIgbWFya2VySGVpZ2h0PSIxMSIgbWFya2VyV2lkdGg9IjExIiBtYXJrZXJVbml0cz0idXNlclNwYWNlT25Vc2UiIHJlZlk9IjUuMiIgcmVmWD0iLTEiIHZpZXdCb3g9IjAgMCAxMSAxMSIgY2xhc3M9Im1hcmtlciBjcm9zcyBmbG93Y2hhcnQtdjIiIGlkPSJnZU1lcm1haWRPdXRwdXQtMTc0MTkzMzgwNjQ3OF9mbG93Y2hhcnQtdjItY3Jvc3NTdGFydCI+PHBhdGggc3R5bGU9InN0cm9rZS13aWR0aDogMjsgc3Ryb2tlLWRhc2hhcnJheTogMSwgMDsiIGNsYXNzPSJhcnJvd01hcmtlclBhdGgiIGQ9Ik0gMSwxIGwgOSw5IE0gMTAsMSBsIC05LDkiPjwvcGF0aD48L21hcmtlcj48ZyBjbGFzcz0icm9vdCI+PGcgY2xhc3M9ImNsdXN0ZXJzIj48L2c+PGcgY2xhc3M9ImVkZ2VQYXRocyI+PHBhdGggbWFya2VyLWVuZD0idXJsKCNnZU1lcm1haWRPdXRwdXQtMTc0MTkzMzgwNjQ3OF9mbG93Y2hhcnQtdjItcG9pbnRFbmQpIiBzdHlsZT0iIiBjbGFzcz0iZWRnZS10aGlja25lc3Mtbm9ybWFsIGVkZ2UtcGF0dGVybi1zb2xpZCBlZGdlLXRoaWNrbmVzcy1ub3JtYWwgZWRnZS1wYXR0ZXJuLXNvbGlkIGZsb3djaGFydC1saW5rIiBpZD0iTF9BX0JfMCIgZD0iTTM1Ny45NjcsNjJMMzU3Ljk2Nyw2Ni4xNjdDMzU3Ljk2Nyw3MC4zMzMsMzU3Ljk2Nyw3OC42NjcsMzU3Ljk2Nyw4Ni4zMzNDMzU3Ljk2Nyw5NCwzNTcuOTY3LDEwMSwzNTcuOTY3LDEwNC41TDM1Ny45NjcsMTA4Ij48L3BhdGg+PHBhdGggbWFya2VyLWVuZD0idXJsKCNnZU1lcm1haWRPdXRwdXQtMTc0MTkzMzgwNjQ3OF9mbG93Y2hhcnQtdjItcG9pbnRFbmQpIiBzdHlsZT0iIiBjbGFzcz0iZWRnZS10aGlja25lc3Mtbm9ybWFsIGVkZ2UtcGF0dGVybi1zb2xpZCBlZGdlLXRoaWNrbmVzcy1ub3JtYWwgZWRnZS1wYXR0ZXJuLXNvbGlkIGZsb3djaGFydC1saW5rIiBpZD0iTF9CX0NfMSIgZD0iTTMxNS4xMzEsMTY2TDMwOC41MiwxNzAuMTY3QzMwMS45MSwxNzQuMzMzLDI4OC42ODksMTgyLjY2NywyODIuMTQ4LDE5MC40MTdDMjc1LjYwOCwxOTguMTY3LDI3NS43NDksMjA1LjMzNCwyNzUuODE5LDIwOC45MTdMMjc1Ljg4OSwyMTIuNTAxIj48L3BhdGg+PHBhdGggbWFya2VyLWVuZD0idXJsKCNnZU1lcm1haWRPdXRwdXQtMTc0MTkzMzgwNjQ3OF9mbG93Y2hhcnQtdjItcG9pbnRFbmQpIiBzdHlsZT0iIiBjbGFzcz0iZWRnZS10aGlja25lc3Mtbm9ybWFsIGVkZ2UtcGF0dGVybi1zb2xpZCBlZGdlLXRoaWNrbmVzcy1ub3JtYWwgZWRnZS1wYXR0ZXJuLXNvbGlkIGZsb3djaGFydC1saW5rIiBpZD0iTF9DX0RfMiIgZD0iTTIyNC40OTgsMzYwLjU5M0wyMDguMTM0LDM3NS4xNkMxOTEuNzcsMzg5LjcyNiwxNTkuMDQxLDQxOC44NTgsMTQyLjY3Nyw0MzguODNDMTI2LjMxMyw0NTguODAxLDEyNi4zMTMsNDY5LjYxLDEyNi4zMTMsNDc1LjAxNUwxMjYuMzEzLDQ4MC40MiI+PC9wYXRoPjxwYXRoIG1hcmtlci1lbmQ9InVybCgjZ2VNZXJtYWlkT3V0cHV0LTE3NDE5MzM4MDY0NzhfZmxvd2NoYXJ0LXYyLXBvaW50RW5kKSIgc3R5bGU9IiIgY2xhc3M9ImVkZ2UtdGhpY2tuZXNzLW5vcm1hbCBlZGdlLXBhdHRlcm4tc29saWQgZWRnZS10aGlja25lc3Mtbm9ybWFsIGVkZ2UtcGF0dGVybi1zb2xpZCBmbG93Y2hhcnQtbGluayIgaWQ9IkxfQ19FXzMiIGQ9Ik0zMjcuNDM3LDM2MC41OTNMMzQzLjYzNSwzNzUuMTZDMzU5LjgzMiwzODkuNzI2LDM5Mi4yMjcsNDE4Ljg1OCw0MDguNDI1LDQzOC44M0M0MjQuNjIzLDQ1OC44MDEsNDI0LjYyMyw0NjkuNjEsNDI0LjYyMyw0NzUuMDE1TDQyNC42MjMsNDgwLjQyIj48L3BhdGg+PHBhdGggbWFya2VyLWVuZD0idXJsKCNnZU1lcm1haWRPdXRwdXQtMTc0MTkzMzgwNjQ3OF9mbG93Y2hhcnQtdjItcG9pbnRFbmQpIiBzdHlsZT0iIiBjbGFzcz0iZWRnZS10aGlja25lc3Mtbm9ybWFsIGVkZ2UtcGF0dGVybi1zb2xpZCBlZGdlLXRoaWNrbmVzcy1ub3JtYWwgZWRnZS1wYXR0ZXJuLXNvbGlkIGZsb3djaGFydC1saW5rIiBpZD0iTF9FX0ZfNCIgZD0iTTQyNC42MjMsNTM4LjQyTDQyNC42MjMsNTQyLjU4NkM0MjQuNjIzLDU0Ni43NTMsNDI0LjYyMyw1NTUuMDg2LDQyNC42MjMsNTYyLjc1M0M0MjQuNjIzLDU3MC40Miw0MjQuNjIzLDU3Ny40Miw0MjQuNjIzLDU4MC45Mkw0MjQuNjIzLDU4NC40MiI+PC9wYXRoPjxwYXRoIG1hcmtlci1lbmQ9InVybCgjZ2VNZXJtYWlkT3V0cHV0LTE3NDE5MzM4MDY0NzhfZmxvd2NoYXJ0LXYyLXBvaW50RW5kKSIgc3R5bGU9IiIgY2xhc3M9ImVkZ2UtdGhpY2tuZXNzLW5vcm1hbCBlZGdlLXBhdHRlcm4tc29saWQgZWRnZS10aGlja25lc3Mtbm9ybWFsIGVkZ2UtcGF0dGVybi1zb2xpZCBmbG93Y2hhcnQtbGluayIgaWQ9IkxfRl9HXzUiIGQ9Ik00MjQuNjIzLDY0Mi40Mkw0MjQuNjIzLDY0Ni41ODZDNDI0LjYyMyw2NTAuNzUzLDQyNC42MjMsNjU5LjA4Niw0MjQuNjIzLDY2Ni43NTNDNDI0LjYyMyw2NzQuNDIsNDI0LjYyMyw2ODEuNDIsNDI0LjYyMyw2ODQuOTJMNDI0LjYyMyw2ODguNDIiPjwvcGF0aD48cGF0aCBtYXJrZXItZW5kPSJ1cmwoI2dlTWVybWFpZE91dHB1dC0xNzQxOTMzODA2NDc4X2Zsb3djaGFydC12Mi1wb2ludEVuZCkiIHN0eWxlPSIiIGNsYXNzPSJlZGdlLXRoaWNrbmVzcy1ub3JtYWwgZWRnZS1wYXR0ZXJuLXNvbGlkIGVkZ2UtdGhpY2tuZXNzLW5vcm1hbCBlZGdlLXBhdHRlcm4tc29saWQgZmxvd2NoYXJ0LWxpbmsiIGlkPSJMX0dfSF82IiBkPSJNNDI0LjYyMyw3NDYuNDJMNDI0LjYyMyw3NTAuNTg2QzQyNC42MjMsNzU0Ljc1Myw0MjQuNjIzLDc2My4wODYsNDI0LjYyMyw3NzAuNzUzQzQyNC42MjMsNzc4LjQyLDQyNC42MjMsNzg1LjQyLDQyNC42MjMsNzg4LjkyTDQyNC42MjMsNzkyLjQyIj48L3BhdGg+PHBhdGggbWFya2VyLWVuZD0idXJsKCNnZU1lcm1haWRPdXRwdXQtMTc0MTkzMzgwNjQ3OF9mbG93Y2hhcnQtdjItcG9pbnRFbmQpIiBzdHlsZT0iIiBjbGFzcz0iZWRnZS10aGlja25lc3Mtbm9ybWFsIGVkZ2UtcGF0dGVybi1zb2xpZCBlZGdlLXRoaWNrbmVzcy1ub3JtYWwgZWRnZS1wYXR0ZXJuLXNvbGlkIGZsb3djaGFydC1saW5rIiBpZD0iTF9IX0lfNyIgZD0iTTQyNC42MjMsODUwLjQyTDQyNC42MjMsODU0LjU4NkM0MjQuNjIzLDg1OC43NTMsNDI0LjYyMyw4NjcuMDg2LDQyNC42MjMsODc0Ljc1M0M0MjQuNjIzLDg4Mi40Miw0MjQuNjIzLDg4OS40Miw0MjQuNjIzLDg5Mi45Mkw0MjQuNjIzLDg5Ni40MiI+PC9wYXRoPjxwYXRoIG1hcmtlci1lbmQ9InVybCgjZ2VNZXJtYWlkT3V0cHV0LTE3NDE5MzM4MDY0NzhfZmxvd2NoYXJ0LXYyLXBvaW50RW5kKSIgc3R5bGU9IiIgY2xhc3M9ImVkZ2UtdGhpY2tuZXNzLW5vcm1hbCBlZGdlLXBhdHRlcm4tc29saWQgZWRnZS10aGlja25lc3Mtbm9ybWFsIGVkZ2UtcGF0dGVybi1zb2xpZCBmbG93Y2hhcnQtbGluayIgaWQ9IkxfSV9KXzgiIGQ9Ik00MjQuNjIzLDk1NC40Mkw0MjQuNjIzLDk1OC41ODZDNDI0LjYyMyw5NjIuNzUzLDQyNC42MjMsOTcxLjA4Niw0MjQuNjIzLDk3OC43NTNDNDI0LjYyMyw5ODYuNDIsNDI0LjYyMyw5OTMuNDIsNDI0LjYyMyw5OTYuOTJMNDI0LjYyMywxMDAwLjQyIj48L3BhdGg+PHBhdGggbWFya2VyLWVuZD0idXJsKCNnZU1lcm1haWRPdXRwdXQtMTc0MTkzMzgwNjQ3OF9mbG93Y2hhcnQtdjItcG9pbnRFbmQpIiBzdHlsZT0iIiBjbGFzcz0iZWRnZS10aGlja25lc3Mtbm9ybWFsIGVkZ2UtcGF0dGVybi1zb2xpZCBlZGdlLXRoaWNrbmVzcy1ub3JtYWwgZWRnZS1wYXR0ZXJuLXNvbGlkIGZsb3djaGFydC1saW5rIiBpZD0iTF9KX0tfOSIgZD0iTTQyNC42MjMsMTA1OC40Mkw0MjQuNjIzLDEwNjIuNTg2QzQyNC42MjMsMTA2Ni43NTMsNDI0LjYyMywxMDc1LjA4Niw0MjQuNjIzLDEwODIuNzUzQzQyNC42MjMsMTA5MC40Miw0MjQuNjIzLDEwOTcuNDIsNDI0LjYyMywxMTAwLjkyTDQyNC42MjMsMTEwNC40MiI+PC9wYXRoPjxwYXRoIG1hcmtlci1lbmQ9InVybCgjZ2VNZXJtYWlkT3V0cHV0LTE3NDE5MzM4MDY0NzhfZmxvd2NoYXJ0LXYyLXBvaW50RW5kKSIgc3R5bGU9IiIgY2xhc3M9ImVkZ2UtdGhpY2tuZXNzLW5vcm1hbCBlZGdlLXBhdHRlcm4tc29saWQgZWRnZS10aGlja25lc3Mtbm9ybWFsIGVkZ2UtcGF0dGVybi1zb2xpZCBmbG93Y2hhcnQtbGluayIgaWQ9IkxfS19MXzEwIiBkPSJNNDI0LjYyMywxMTYyLjQyTDQyNC42MjMsMTE2Ni41ODZDNDI0LjYyMywxMTcwLjc1Myw0MjQuNjIzLDExNzkuMDg2LDQyNC42MjMsMTE4Ni43NTNDNDI0LjYyMywxMTk0LjQyLDQyNC42MjMsMTIwMS40Miw0MjQuNjIzLDEyMDQuOTJMNDI0LjYyMywxMjA4LjQyIj48L3BhdGg+PHBhdGggbWFya2VyLWVuZD0idXJsKCNnZU1lcm1haWRPdXRwdXQtMTc0MTkzMzgwNjQ3OF9mbG93Y2hhcnQtdjItcG9pbnRFbmQpIiBzdHlsZT0iIiBjbGFzcz0iZWRnZS10aGlja25lc3Mtbm9ybWFsIGVkZ2UtcGF0dGVybi1zb2xpZCBlZGdlLXRoaWNrbmVzcy1ub3JtYWwgZWRnZS1wYXR0ZXJuLXNvbGlkIGZsb3djaGFydC1saW5rIiBpZD0iTF9MX01fMTEiIGQ9Ik00MjQuNjIzLDEyNjYuNDJMNDI0LjYyMywxMjcwLjU4NkM0MjQuNjIzLDEyNzQuNzUzLDQyNC42MjMsMTI4My4wODYsNDI0LjY5MywxMjkwLjgzNkM0MjQuNzYzLDEyOTguNTg3LDQyNC45MDQsMTMwNS43NTMsNDI0Ljk3NCwxMzA5LjMzN0w0MjUuMDQ0LDEzMTIuOTIiPjwvcGF0aD48cGF0aCBtYXJrZXItZW5kPSJ1cmwoI2dlTWVybWFpZE91dHB1dC0xNzQxOTMzODA2NDc4X2Zsb3djaGFydC12Mi1wb2ludEVuZCkiIHN0eWxlPSIiIGNsYXNzPSJlZGdlLXRoaWNrbmVzcy1ub3JtYWwgZWRnZS1wYXR0ZXJuLXNvbGlkIGVkZ2UtdGhpY2tuZXNzLW5vcm1hbCBlZGdlLXBhdHRlcm4tc29saWQgZmxvd2NoYXJ0LWxpbmsiIGlkPSJMX01fTl8xMiIgZD0iTTQ5OC4yMjMsMTQ5Ny44MTVMNTIyLjg5OSwxNTE1Ljk4NkM1NDcuNTc0LDE1MzQuMTU4LDU5Ni45MjYsMTU3MC41MDEsNjIxLjYwMSwxNTk0LjA3N0M2NDYuMjc3LDE2MTcuNjUzLDY0Ni4yNzcsMTYyOC40NjMsNjQ2LjI3NywxNjMzLjg2OEw2NDYuMjc3LDE2MzkuMjcyIj48L3BhdGg+PHBhdGggbWFya2VyLWVuZD0idXJsKCNnZU1lcm1haWRPdXRwdXQtMTc0MTkzMzgwNjQ3OF9mbG93Y2hhcnQtdjItcG9pbnRFbmQpIiBzdHlsZT0iIiBjbGFzcz0iZWRnZS10aGlja25lc3Mtbm9ybWFsIGVkZ2UtcGF0dGVybi1zb2xpZCBlZGdlLXRoaWNrbmVzcy1ub3JtYWwgZWRnZS1wYXR0ZXJuLXNvbGlkIGZsb3djaGFydC1saW5rIiBpZD0iTF9OX09fMTMiIGQ9Ik02NDYuMjc3LDE2OTcuMjcyTDY0Ni4yNzcsMTcwMS40MzlDNjQ2LjI3NywxNzA1LjYwNiw2NDYuMjc3LDE3MTMuOTM5LDY0Ni4yNzcsMTcyMS42MDZDNjQ2LjI3NywxNzI5LjI3Miw2NDYuMjc3LDE3MzYuMjcyLDY0Ni4yNzcsMTczOS43NzJMNjQ2LjI3NywxNzQzLjI3MiI+PC9wYXRoPjxwYXRoIG1hcmtlci1lbmQ9InVybCgjZ2VNZXJtYWlkT3V0cHV0LTE3NDE5MzM4MDY0NzhfZmxvd2NoYXJ0LXYyLXBvaW50RW5kKSIgc3R5bGU9IiIgY2xhc3M9ImVkZ2UtdGhpY2tuZXNzLW5vcm1hbCBlZGdlLXBhdHRlcm4tc29saWQgZWRnZS10aGlja25lc3Mtbm9ybWFsIGVkZ2UtcGF0dGVybi1zb2xpZCBmbG93Y2hhcnQtbGluayIgaWQ9IkxfTV9QXzE0IiBkPSJNMzgwLjU2MSwxNTI2LjM1NEwzNzMuMTgxLDE1MzkuNzY5QzM2NS44MDEsMTU1My4xODQsMzUxLjA0MSwxNTgwLjAxNCwzNDMuNjYxLDE1OTguODMzQzMzNi4yODEsMTYxNy42NTMsMzM2LjI4MSwxNjI4LjQ2MywzMzYuMjgxLDE2MzMuODY4TDMzNi4yODEsMTYzOS4yNzIiPjwvcGF0aD48cGF0aCBtYXJrZXItZW5kPSJ1cmwoI2dlTWVybWFpZE91dHB1dC0xNzQxOTMzODA2NDc4X2Zsb3djaGFydC12Mi1wb2ludEVuZCkiIHN0eWxlPSIiIGNsYXNzPSJlZGdlLXRoaWNrbmVzcy1ub3JtYWwgZWRnZS1wYXR0ZXJuLXNvbGlkIGVkZ2UtdGhpY2tuZXNzLW5vcm1hbCBlZGdlLXBhdHRlcm4tc29saWQgZmxvd2NoYXJ0LWxpbmsiIGlkPSJMX1BfUV8xNSIgZD0iTTMzNi4yODEsMTY5Ny4yNzJMMzM2LjI4MSwxNzAxLjQzOUMzMzYuMjgxLDE3MDUuNjA2LDMzNi4yODEsMTcxMy45MzksMzM2LjI4MSwxNzIxLjYwNkMzMzYuMjgxLDE3MjkuMjcyLDMzNi4yODEsMTczNi4yNzIsMzM2LjI4MSwxNzM5Ljc3MkwzMzYuMjgxLDE3NDMuMjcyIj48L3BhdGg+PHBhdGggbWFya2VyLWVuZD0idXJsKCNnZU1lcm1haWRPdXRwdXQtMTc0MTkzMzgwNjQ3OF9mbG93Y2hhcnQtdjItcG9pbnRFbmQpIiBzdHlsZT0iIiBjbGFzcz0iZWRnZS10aGlja25lc3Mtbm9ybWFsIGVkZ2UtcGF0dGVybi1zb2xpZCBlZGdlLXRoaWNrbmVzcy1ub3JtYWwgZWRnZS1wYXR0ZXJuLXNvbGlkIGZsb3djaGFydC1saW5rIiBpZD0iTF9RX1JfMTYiIGQ9Ik0zMzYuMjgxLDE4MDEuMjcyTDMzNi4yODEsMTgwNS40MzlDMzM2LjI4MSwxODA5LjYwNiwzMzYuMjgxLDE4MTcuOTM5LDMzNi4zNTIsMTgyNS42ODlDMzM2LjQyMiwxODMzLjQzOSwzMzYuNTYyLDE4NDAuNjA2LDMzNi42MzMsMTg0NC4xOUwzMzYuNzAzLDE4NDcuNzczIj48L3BhdGg+PHBhdGggbWFya2VyLWVuZD0idXJsKCNnZU1lcm1haWRPdXRwdXQtMTc0MTkzMzgwNjQ3OF9mbG93Y2hhcnQtdjItcG9pbnRFbmQpIiBzdHlsZT0iIiBjbGFzcz0iZWRnZS10aGlja25lc3Mtbm9ybWFsIGVkZ2UtcGF0dGVybi1zb2xpZCBlZGdlLXRoaWNrbmVzcy1ub3JtYWwgZWRnZS1wYXR0ZXJuLXNvbGlkIGZsb3djaGFydC1saW5rIiBpZD0iTF9SX1NfMTciIGQ9Ik0zMDMuNzA3LDE5OTAuMzQxTDI5Ni4zNiwyMDAxLjg0MUMyODkuMDEzLDIwMTMuMzQyLDI3NC4zMTksMjAzNi4zNDMsMjY2Ljk3MiwyMDYzLjA1MkMyNTkuNjI1LDIwODkuNzYsMjU5LjYyNSwyMTIwLjE3NywyNTkuNjI1LDIxMzUuMzg1TDI1OS42MjUsMjE1MC41OTQiPjwvcGF0aD48cGF0aCBtYXJrZXItZW5kPSJ1cmwoI2dlTWVybWFpZE91dHB1dC0xNzQxOTMzODA2NDc4X2Zsb3djaGFydC12Mi1wb2ludEVuZCkiIHN0eWxlPSIiIGNsYXNzPSJlZGdlLXRoaWNrbmVzcy1ub3JtYWwgZWRnZS1wYXR0ZXJuLXNvbGlkIGVkZ2UtdGhpY2tuZXNzLW5vcm1hbCBlZGdlLXBhdHRlcm4tc29saWQgZmxvd2NoYXJ0LWxpbmsiIGlkPSJMX1NfVF8xOCIgZD0iTTI1OS42MjUsMjIwOC41OTRMMjU5LjYyNSwyMjI0LjQ2OUMyNTkuNjI1LDIyNDAuMzQ0LDI1OS42MjUsMjI3Mi4wOTQsMjU5LjYyNSwyMjkzLjM3NEMyNTkuNjI1LDIzMTQuNjUzLDI1OS42MjUsMjMyNS40NjMsMjU5LjYyNSwyMzMwLjg2OEwyNTkuNjI1LDIzMzYuMjcyIj48L3BhdGg+PHBhdGggbWFya2VyLWVuZD0idXJsKCNnZU1lcm1haWRPdXRwdXQtMTc0MTkzMzgwNjQ3OF9mbG93Y2hhcnQtdjItcG9pbnRFbmQpIiBzdHlsZT0iIiBjbGFzcz0iZWRnZS10aGlja25lc3Mtbm9ybWFsIGVkZ2UtcGF0dGVybi1zb2xpZCBlZGdlLXRoaWNrbmVzcy1ub3JtYWwgZWRnZS1wYXR0ZXJuLXNvbGlkIGZsb3djaGFydC1saW5rIiBpZD0iTF9UX1VfMTkiIGQ9Ik0yNTkuNjI1LDIzOTQuMjcyTDI1OS42MjUsMjM5OC40MzlDMjU5LjYyNSwyNDAyLjYwNiwyNTkuNjI1LDI0MTAuOTM5LDI2NS4yMTYsMjQxOC44OThDMjcwLjgwNiwyNDI2Ljg1NywyODEuOTg4LDI0MzQuNDQyLDI4Ny41NzgsMjQzOC4yMzRMMjkzLjE2OSwyNDQyLjAyNyI+PC9wYXRoPjxwYXRoIG1hcmtlci1lbmQ9InVybCgjZ2VNZXJtYWlkT3V0cHV0LTE3NDE5MzM4MDY0NzhfZmxvd2NoYXJ0LXYyLXBvaW50RW5kKSIgc3R5bGU9IiIgY2xhc3M9ImVkZ2UtdGhpY2tuZXNzLW5vcm1hbCBlZGdlLXBhdHRlcm4tc29saWQgZWRnZS10aGlja25lc3Mtbm9ybWFsIGVkZ2UtcGF0dGVybi1zb2xpZCBmbG93Y2hhcnQtbGluayIgaWQ9IkxfUl9VXzIwIiBkPSJNMzc1LjQ4NywxOTg0LjcwOUwzODUuNjkxLDE5OTcuMTQ4QzM5NS44OTUsMjAwOS41ODcsNDE2LjMwMywyMDM0LjQ2Niw0MjYuNTA3LDIwNjcuMjhDNDM2LjcxMSwyMTAwLjA5NCw0MzYuNzExLDIxNDAuODQ0LDQzNi43MTEsMjE4MS41OTRDNDM2LjcxMSwyMjIyLjM0NCw0MzYuNzExLDIyNjMuMDk0LDQzNi43MTEsMjI5NC4wNEM0MzYuNzExLDIzMjQuOTg3LDQzNi43MTEsMjM0Ni4xMjksNDM2LjcxMSwyMzY1LjM2OEM0MzYuNzExLDIzODQuNjA2LDQzNi43MTEsMjQwMS45MzksNDI5LjI1NiwyNDE0LjQ2NkM0MjEuOCwyNDI2Ljk5Myw0MDYuODksMjQzNC43MTMsMzk5LjQzNSwyNDM4LjU3M0wzOTEuOTgsMjQ0Mi40MzMiPjwvcGF0aD48cGF0aCBtYXJrZXItZW5kPSJ1cmwoI2dlTWVybWFpZE91dHB1dC0xNzQxOTMzODA2NDc4X2Zsb3djaGFydC12Mi1wb2ludEVuZCkiIHN0eWxlPSIiIGNsYXNzPSJlZGdlLXRoaWNrbmVzcy1ub3JtYWwgZWRnZS1wYXR0ZXJuLXNvbGlkIGVkZ2UtdGhpY2tuZXNzLW5vcm1hbCBlZGdlLXBhdHRlcm4tc29saWQgZmxvd2NoYXJ0LWxpbmsiIGlkPSJMX1VfVl8yMSIgZD0iTTMzNi4yODEsMjQ5OC4yNzJMMzM2LjI4MSwyNTAyLjQzOUMzMzYuMjgxLDI1MDYuNjA2LDMzNi4yODEsMjUxNC45MzksMzM2LjM1MiwyNTIyLjY4OUMzMzYuNDIyLDI1MzAuNDM5LDMzNi41NjIsMjUzNy42MDYsMzM2LjYzMywyNTQxLjE5TDMzNi43MDMsMjU0NC43NzMiPjwvcGF0aD48cGF0aCBtYXJrZXItZW5kPSJ1cmwoI2dlTWVybWFpZE91dHB1dC0xNzQxOTMzODA2NDc4X2Zsb3djaGFydC12Mi1wb2ludEVuZCkiIHN0eWxlPSIiIGNsYXNzPSJlZGdlLXRoaWNrbmVzcy1ub3JtYWwgZWRnZS1wYXR0ZXJuLXNvbGlkIGVkZ2UtdGhpY2tuZXNzLW5vcm1hbCBlZGdlLXBhdHRlcm4tc29saWQgZmxvd2NoYXJ0LWxpbmsiIGlkPSJMX1ZfV18yMiIgZD0iTTI3Ni4xODEsMjc0Mi4xNjhMMjYxLjMzOSwyNzU4LjI1NkMyNDYuNDk2LDI3NzQuMzQ0LDIxNi44MTEsMjgwNi41MiwyMDEuOTY5LDI4MjguMDEzQzE4Ny4xMjYsMjg0OS41MDYsMTg3LjEyNiwyODYwLjMxNiwxODcuMTI2LDI4NjUuNzJMMTg3LjEyNiwyODcxLjEyNSI+PC9wYXRoPjxwYXRoIG1hcmtlci1lbmQ9InVybCgjZ2VNZXJtYWlkT3V0cHV0LTE3NDE5MzM4MDY0NzhfZmxvd2NoYXJ0LXYyLXBvaW50RW5kKSIgc3R5bGU9IiIgY2xhc3M9ImVkZ2UtdGhpY2tuZXNzLW5vcm1hbCBlZGdlLXBhdHRlcm4tc29saWQgZWRnZS10aGlja25lc3Mtbm9ybWFsIGVkZ2UtcGF0dGVybi1zb2xpZCBmbG93Y2hhcnQtbGluayIgaWQ9IkxfVl9YXzIzIiBkPSJNNDE0LjY1MSwyNzI0Ljg5OEw0NDQuNzYyLDI3NDMuODY1QzQ3NC44NzMsMjc2Mi44MzEsNTM1LjA5NiwyODAwLjc2NCw1NjUuMjA3LDI4MjUuMTM1QzU5NS4zMTgsMjg0OS41MDYsNTk1LjMxOCwyODYwLjMxNiw1OTUuMzE4LDI4NjUuNzJMNTk1LjMxOCwyODcxLjEyNSI+PC9wYXRoPjxwYXRoIG1hcmtlci1lbmQ9InVybCgjZ2VNZXJtYWlkT3V0cHV0LTE3NDE5MzM4MDY0NzhfZmxvd2NoYXJ0LXYyLXBvaW50RW5kKSIgc3R5bGU9IiIgY2xhc3M9ImVkZ2UtdGhpY2tuZXNzLW5vcm1hbCBlZGdlLXBhdHRlcm4tc29saWQgZWRnZS10aGlja25lc3Mtbm9ybWFsIGVkZ2UtcGF0dGVybi1zb2xpZCBmbG93Y2hhcnQtbGluayIgaWQ9IkxfV19ZXzI0IiBkPSJNMTg3LjEyNiwyOTI5LjEyNUwxODcuMTI2LDI5MzMuMjkyQzE4Ny4xMjYsMjkzNy40NTgsMTg3LjEyNiwyOTQ1Ljc5MiwyMzIuODMxLDI5NTUuNzgxQzI3OC41MzUsMjk2NS43NywzNjkuOTQ0LDI5NzcuNDE0LDQxNS42NDgsMjk4My4yMzdMNDYxLjM1MiwyOTg5LjA1OSI+PC9wYXRoPjxwYXRoIG1hcmtlci1lbmQ9InVybCgjZ2VNZXJtYWlkT3V0cHV0LTE3NDE5MzM4MDY0NzhfZmxvd2NoYXJ0LXYyLXBvaW50RW5kKSIgc3R5bGU9IiIgY2xhc3M9ImVkZ2UtdGhpY2tuZXNzLW5vcm1hbCBlZGdlLXBhdHRlcm4tc29saWQgZWRnZS10aGlja25lc3Mtbm9ybWFsIGVkZ2UtcGF0dGVybi1zb2xpZCBmbG93Y2hhcnQtbGluayIgaWQ9IkxfWF9ZXzI1IiBkPSJNNTk1LjMxOCwyOTI5LjEyNUw1OTUuMzE4LDI5MzMuMjkyQzU5NS4zMTgsMjkzNy40NTgsNTk1LjMxOCwyOTQ1Ljc5Miw1OTUuMzE4LDI5NTMuNDU4QzU5NS4zMTgsMjk2MS4xMjUsNTk1LjMxOCwyOTY4LjEyNSw1OTUuMzE4LDI5NzEuNjI1TDU5NS4zMTgsMjk3NS4xMjUiPjwvcGF0aD48cGF0aCBtYXJrZXItZW5kPSJ1cmwoI2dlTWVybWFpZE91dHB1dC0xNzQxOTMzODA2NDc4X2Zsb3djaGFydC12Mi1wb2ludEVuZCkiIHN0eWxlPSIiIGNsYXNzPSJlZGdlLXRoaWNrbmVzcy1ub3JtYWwgZWRnZS1wYXR0ZXJuLXNvbGlkIGVkZ2UtdGhpY2tuZXNzLW5vcm1hbCBlZGdlLXBhdHRlcm4tc29saWQgZmxvd2NoYXJ0LWxpbmsiIGlkPSJMX1lfSl8yNiIgZD0iTTcyNS4zMTYsMjk4NS42NEw3NTguNjQ5LDI5ODAuMzg4Qzc5MS45ODIsMjk3NS4xMzUsODU4LjY0OCwyOTY0LjYzLDg5MS45ODEsMjk1MC43MTFDOTI1LjMxNCwyOTM2Ljc5Miw5MjUuMzE0LDI5MTkuNDU4LDkyNS4zMTQsMjkwMC4yMkM5MjUuMzE0LDI4ODAuOTgyLDkyNS4zMTQsMjg1OS44MzksOTI1LjMxNCwyODIyLjAzQzkyNS4zMTQsMjc4NC4yMjEsOTI1LjMxNCwyNzI5Ljc0Niw5MjUuMzE0LDI2NzcuMTc1QzkyNS4zMTQsMjYyNC42MDQsOTI1LjMxNCwyNTczLjkzOCw5MjUuMzE0LDI1MzkuOTM5QzkyNS4zMTQsMjUwNS45MzksOTI1LjMxNCwyNDg4LjYwNiw5MjUuMzE0LDI0NzEuMjcyQzkyNS4zMTQsMjQ1My45MzksOTI1LjMxNCwyNDM2LjYwNiw5MjUuMzE0LDI0MTkuMjcyQzkyNS4zMTQsMjQwMS45MzksOTI1LjMxNCwyMzg0LjYwNiw5MjUuMzE0LDIzNjUuMzY4QzkyNS4zMTQsMjM0Ni4xMjksOTI1LjMxNCwyMzI0Ljk4Nyw5MjUuMzE0LDIyOTQuMDRDOTI1LjMxNCwyMjYzLjA5NCw5MjUuMzE0LDIyMjIuMzQ0LDkyNS4zMTQsMjE4MS41OTRDOTI1LjMxNCwyMTQwLjg0NCw5MjUuMzE0LDIxMDAuMDk0LDkyNS4zMTQsMjA1OS4zNDRDOTI1LjMxNCwyMDE4LjU5NCw5MjUuMzE0LDE5NzcuODQ0LDkyNS4zMTQsMTkzOC45OTlDOTI1LjMxNCwxOTAwLjE1Myw5MjUuMzE0LDE4NjMuMjEzLDkyNS4zMTQsMTgzNi4wNzZDOTI1LjMxNCwxODA4LjkzOSw5MjUuMzE0LDE3OTEuNjA2LDkyNS4zMTQsMTc3NC4yNzJDOTI1LjMxNCwxNzU2LjkzOSw5MjUuMzE0LDE3MzkuNjA2LDkyNS4zMTQsMTcyMi4yNzJDOTI1LjMxNCwxNzA0LjkzOSw5MjUuMzE0LDE2ODcuNjA2LDkyNS4zMTQsMTY2OC4zNjhDOTI1LjMxNCwxNjQ5LjEyOSw5MjUuMzE0LDE2MjcuOTg3LDkyNS4zMTQsMTU5MC4xNzdDOTI1LjMxNCwxNTUyLjM2OCw5MjUuMzE0LDE0OTcuODkzLDkyNS4zMTQsMTQ0NS4zMjJDOTI1LjMxNCwxMzkyLjc1MSw5MjUuMzE0LDEzNDIuMDg2LDkyNS4zMTQsMTMwOC4wODZDOTI1LjMxNCwxMjc0LjA4Niw5MjUuMzE0LDEyNTYuNzUzLDkyNS4zMTQsMTIzOS40MkM5MjUuMzE0LDEyMjIuMDg2LDkyNS4zMTQsMTIwNC43NTMsOTI1LjMxNCwxMTg3LjQyQzkyNS4zMTQsMTE3MC4wODYsOTI1LjMxNCwxMTUyLjc1Myw5MjUuMzE0LDExMzUuNDJDOTI1LjMxNCwxMTE4LjA4Niw5MjUuMzE0LDExMDAuNzUzLDg2Mi44NjEsMTA4NS42QzgwMC40MDgsMTA3MC40NDcsNjc1LjUwMiwxMDU3LjQ3NSw2MTMuMDUsMTA1MC45ODlMNTUwLjU5NywxMDQ0LjUwMyI+PC9wYXRoPjxwYXRoIG1hcmtlci1lbmQ9InVybCgjZ2VNZXJtYWlkT3V0cHV0LTE3NDE5MzM4MDY0NzhfZmxvd2NoYXJ0LXYyLXBvaW50RW5kKSIgc3R5bGU9IiIgY2xhc3M9ImVkZ2UtdGhpY2tuZXNzLW5vcm1hbCBlZGdlLXBhdHRlcm4tc29saWQgZWRnZS10aGlja25lc3Mtbm9ybWFsIGVkZ2UtcGF0dGVybi1zb2xpZCBmbG93Y2hhcnQtbGluayIgaWQ9IkxfT19aXzI3IiBkPSJNNjQ2LjI3NywxODAxLjI3Mkw2NDYuMjc3LDE4MDUuNDM5QzY0Ni4yNzcsMTgwOS42MDYsNjQ2LjI3NywxODE3LjkzOSw2NDYuMjc3LDE4MzUuNDA5QzY0Ni4yNzcsMTg1Mi44NzksNjQ2LjI3NywxODc5LjQ4Nyw2NDYuMjc3LDE4OTIuNzlMNjQ2LjI3NywxOTA2LjA5NCI+PC9wYXRoPjxwYXRoIG1hcmtlci1lbmQ9InVybCgjZ2VNZXJtYWlkT3V0cHV0LTE3NDE5MzM4MDY0NzhfZmxvd2NoYXJ0LXYyLXBvaW50RW5kKSIgc3R5bGU9IiIgY2xhc3M9ImVkZ2UtdGhpY2tuZXNzLW5vcm1hbCBlZGdlLXBhdHRlcm4tc29saWQgZWRnZS10aGlja25lc3Mtbm9ybWFsIGVkZ2UtcGF0dGVybi1zb2xpZCBmbG93Y2hhcnQtbGluayIgaWQ9IkxfWl9BQV8yOCIgZD0iTTY0Ni4yNzcsMTk2NC4wOTRMNjQ2LjI3NywxOTc5Ljk2OUM2NDYuMjc3LDE5OTUuODQ0LDY0Ni4yNzcsMjAyNy41OTQsNjQ2LjM1MSwyMDQ4Ljk1N0M2NDYuNDI1LDIwNzAuMzIsNjQ2LjU3NCwyMDgxLjI5Niw2NDYuNjQ4LDIwODYuNzg1TDY0Ni43MjMsMjA5Mi4yNzMiPjwvcGF0aD48cGF0aCBtYXJrZXItZW5kPSJ1cmwoI2dlTWVybWFpZE91dHB1dC0xNzQxOTMzODA2NDc4X2Zsb3djaGFydC12Mi1wb2ludEVuZCkiIHN0eWxlPSIiIGNsYXNzPSJlZGdlLXRoaWNrbmVzcy1ub3JtYWwgZWRnZS1wYXR0ZXJuLXNvbGlkIGVkZ2UtdGhpY2tuZXNzLW5vcm1hbCBlZGdlLXBhdHRlcm4tc29saWQgZmxvd2NoYXJ0LWxpbmsiIGlkPSJMX0FBX0FCXzI5IiBkPSJNNjg0LjA5MSwyMjMwLjYwMUw2OTMuNDYxLDIyNDIuODA4QzcwMi44MzIsMjI1NS4wMTYsNzIxLjU3NCwyMjc5LjQzLDczMC45NDUsMjI5Ny4wNDFDNzQwLjMxNiwyMzE0LjY1Myw3NDAuMzE2LDIzMjUuNDYzLDc0MC4zMTYsMjMzMC44NjhMNzQwLjMxNiwyMzM2LjI3MiI+PC9wYXRoPjxwYXRoIG1hcmtlci1lbmQ9InVybCgjZ2VNZXJtYWlkT3V0cHV0LTE3NDE5MzM4MDY0NzhfZmxvd2NoYXJ0LXYyLXBvaW50RW5kKSIgc3R5bGU9IiIgY2xhc3M9ImVkZ2UtdGhpY2tuZXNzLW5vcm1hbCBlZGdlLXBhdHRlcm4tc29saWQgZWRnZS10aGlja25lc3Mtbm9ybWFsIGVkZ2UtcGF0dGVybi1zb2xpZCBmbG93Y2hhcnQtbGluayIgaWQ9IkxfQUFfQUNfMzAiIGQ9Ik02MDEuOTg1LDIyMjMuMTI0TDU4Ny4xMjQsMjIzNi41NzdDNTcyLjI2MywyMjUwLjAzLDU0Mi41NDEsMjI3Ni45MzcsNTI3LjY4LDIzMDAuOTYyQzUxMi44MTksMjMyNC45ODcsNTEyLjgxOSwyMzQ2LjEyOSw1MTIuODE5LDIzNjUuMzY4QzUxMi44MTksMjM4NC42MDYsNTEyLjgxOSwyNDAxLjkzOSw1MjQuNjE4LDI0MTQuNTZDNTM2LjQxOCwyNDI3LjE4Miw1NjAuMDE2LDI0MzUuMDkyLDU3MS44MTUsMjQzOS4wNDZMNTgzLjYxNCwyNDQzLjAwMSI+PC9wYXRoPjxwYXRoIG1hcmtlci1lbmQ9InVybCgjZ2VNZXJtYWlkT3V0cHV0LTE3NDE5MzM4MDY0NzhfZmxvd2NoYXJ0LXYyLXBvaW50RW5kKSIgc3R5bGU9IiIgY2xhc3M9ImVkZ2UtdGhpY2tuZXNzLW5vcm1hbCBlZGdlLXBhdHRlcm4tc29saWQgZWRnZS10aGlja25lc3Mtbm9ybWFsIGVkZ2UtcGF0dGVybi1zb2xpZCBmbG93Y2hhcnQtbGluayIgaWQ9IkxfQUJfQUNfMzEiIGQ9Ik03NDAuMzE2LDIzOTQuMjcyTDc0MC4zMTYsMjM5OC40MzlDNzQwLjMxNiwyNDAyLjYwNiw3NDAuMzE2LDI0MTAuOTM5LDczNS4wNiwyNDE4Ljg4M0M3MjkuODAzLDI0MjYuODI4LDcxOS4yOTEsMjQzNC4zODMsNzE0LjAzNSwyNDM4LjE2TDcwOC43NzksMjQ0MS45MzgiPjwvcGF0aD48cGF0aCBtYXJrZXItZW5kPSJ1cmwoI2dlTWVybWFpZE91dHB1dC0xNzQxOTMzODA2NDc4X2Zsb3djaGFydC12Mi1wb2ludEVuZCkiIHN0eWxlPSIiIGNsYXNzPSJlZGdlLXRoaWNrbmVzcy1ub3JtYWwgZWRnZS1wYXR0ZXJuLXNvbGlkIGVkZ2UtdGhpY2tuZXNzLW5vcm1hbCBlZGdlLXBhdHRlcm4tc29saWQgZmxvd2NoYXJ0LWxpbmsiIGlkPSJMX0FDX0JfMzIiIGQ9Ik03OTEuMjAyLDI0NDQuMjcyTDgxMC4yMjEsMjQ0MC4xMDZDODI5LjIzOSwyNDM1LjkzOSw4NjcuMjc3LDI0MjcuNjA2LDg4Ni4yOTUsMjQxNC43NzJDOTA1LjMxNCwyNDAxLjkzOSw5MDUuMzE0LDIzODQuNjA2LDkwNS4zMTQsMjM2NS4zNjhDOTA1LjMxNCwyMzQ2LjEyOSw5MDUuMzE0LDIzMjQuOTg3LDkwNS4zMTQsMjI5NC4wNEM5MDUuMzE0LDIyNjMuMDk0LDkwNS4zMTQsMjIyMi4zNDQsOTA1LjMxNCwyMTgxLjU5NEM5MDUuMzE0LDIxNDAuODQ0LDkwNS4zMTQsMjEwMC4wOTQsOTA1LjMxNCwyMDU5LjM0NEM5MDUuMzE0LDIwMTguNTk0LDkwNS4zMTQsMTk3Ny44NDQsOTA1LjMxNCwxOTM4Ljk5OUM5MDUuMzE0LDE5MDAuMTUzLDkwNS4zMTQsMTg2My4yMTMsOTA1LjMxNCwxODM2LjA3NkM5MDUuMzE0LDE4MDguOTM5LDkwNS4zMTQsMTc5MS42MDYsOTA1LjMxNCwxNzc0LjI3MkM5MDUuMzE0LDE3NTYuOTM5LDkwNS4zMTQsMTczOS42MDYsOTA1LjMxNCwxNzIyLjI3MkM5MDUuMzE0LDE3MDQuOTM5LDkwNS4zMTQsMTY4Ny42MDYsOTA1LjMxNCwxNjY4LjM2OEM5MDUuMzE0LDE2NDkuMTI5LDkwNS4zMTQsMTYyNy45ODcsOTA1LjMxNCwxNTkwLjE3N0M5MDUuMzE0LDE1NTIuMzY4LDkwNS4zMTQsMTQ5Ny44OTMsOTA1LjMxNCwxNDQ1LjMyMkM5MDUuMzE0LDEzOTIuNzUxLDkwNS4zMTQsMTM0Mi4wODYsOTA1LjMxNCwxMzA4LjA4NkM5MDUuMzE0LDEyNzQuMDg2LDkwNS4zMTQsMTI1Ni43NTMsOTA1LjMxNCwxMjM5LjQyQzkwNS4zMTQsMTIyMi4wODYsOTA1LjMxNCwxMjA0Ljc1Myw5MDUuMzE0LDExODcuNDJDOTA1LjMxNCwxMTcwLjA4Niw5MDUuMzE0LDExNTIuNzUzLDkwNS4zMTQsMTEzNS40MkM5MDUuMzE0LDExMTguMDg2LDkwNS4zMTQsMTEwMC43NTMsOTA1LjMxNCwxMDgzLjQyQzkwNS4zMTQsMTA2Ni4wODYsOTA1LjMxNCwxMDQ4Ljc1Myw5MDUuMzE0LDEwMzEuNDJDOTA1LjMxNCwxMDE0LjA4Niw5MDUuMzE0LDk5Ni43NTMsOTA1LjMxNCw5NzkuNDJDOTA1LjMxNCw5NjIuMDg2LDkwNS4zMTQsOTQ0Ljc1Myw5MDUuMzE0LDkyNy40MkM5MDUuMzE0LDkxMC4wODYsOTA1LjMxNCw4OTIuNzUzLDkwNS4zMTQsODc1LjQyQzkwNS4zMTQsODU4LjA4Niw5MDUuMzE0LDg0MC43NTMsOTA1LjMxNCw4MjMuNDJDOTA1LjMxNCw4MDYuMDg2LDkwNS4zMTQsNzg4Ljc1Myw5MDUuMzE0LDc3MS40MkM5MDUuMzE0LDc1NC4wODYsOTA1LjMxNCw3MzYuNzUzLDkwNS4zMTQsNzE5LjQyQzkwNS4zMTQsNzAyLjA4Niw5MDUuMzE0LDY4NC43NTMsOTA1LjMxNCw2NjcuNDJDOTA1LjMxNCw2NTAuMDg2LDkwNS4zMTQsNjMyLjc1Myw5MDUuMzE0LDYxNS40MkM5MDUuMzE0LDU5OC4wODYsOTA1LjMxNCw1ODAuNzUzLDkwNS4zMTQsNTYzLjQyQzkwNS4zMTQsNTQ2LjA4Niw5MDUuMzE0LDUyOC43NTMsOTA1LjMxNCw1MDkuNTE1QzkwNS4zMTQsNDkwLjI3Nyw5MDUuMzE0LDQ2OS4xMzQsOTA1LjMxNCw0MzYuMTk0QzkwNS4zMTQsNDAzLjI1NCw5MDUuMzE0LDM1OC41MTgsOTA1LjMxNCwzMTUuNjg2QzkwNS4zMTQsMjcyLjg1NCw5MDUuMzE0LDIzMS45MjcsODM2LjQxOSwyMDQuOTE4Qzc2Ny41MjUsMTc3LjkxLDYyOS43MzUsMTY0LjgxOSw1NjAuODQxLDE1OC4yNzRMNDkxLjk0NiwxNTEuNzI5Ij48L3BhdGg+PC9nPjxnIGNsYXNzPSJlZGdlTGFiZWxzIj48Zz48cmVjdCBzdHlsZT0ic3Ryb2tlOiBub25lIiBjbGFzcz0iYmFja2dyb3VuZCI+PC9yZWN0PjwvZz48Zz48cmVjdCBzdHlsZT0ic3Ryb2tlOiBub25lIiBjbGFzcz0iYmFja2dyb3VuZCI+PC9yZWN0PjwvZz48Zz48cmVjdCBzdHlsZT0ic3Ryb2tlOiBub25lIiBjbGFzcz0iYmFja2dyb3VuZCI+PC9yZWN0PjwvZz48Zz48cmVjdCBzdHlsZT0ic3Ryb2tlOiBub25lIiBjbGFzcz0iYmFja2dyb3VuZCI+PC9yZWN0PjwvZz48Zz48cmVjdCBzdHlsZT0ic3Ryb2tlOiBub25lIiBjbGFzcz0iYmFja2dyb3VuZCI+PC9yZWN0PjwvZz48Zz48cmVjdCBzdHlsZT0ic3Ryb2tlOiBub25lIiBjbGFzcz0iYmFja2dyb3VuZCI+PC9yZWN0PjwvZz48Zz48cmVjdCBzdHlsZT0ic3Ryb2tlOiBub25lIiBjbGFzcz0iYmFja2dyb3VuZCI+PC9yZWN0PjwvZz48Zz48cmVjdCBzdHlsZT0ic3Ryb2tlOiBub25lIiBjbGFzcz0iYmFja2dyb3VuZCI+PC9yZWN0PjwvZz48Zz48cmVjdCBzdHlsZT0ic3Ryb2tlOiBub25lIiBjbGFzcz0iYmFja2dyb3VuZCI+PC9yZWN0PjwvZz48Zz48cmVjdCBzdHlsZT0ic3Ryb2tlOiBub25lIiBjbGFzcz0iYmFja2dyb3VuZCI+PC9yZWN0PjwvZz48Zz48cmVjdCBzdHlsZT0ic3Ryb2tlOiBub25lIiBjbGFzcz0iYmFja2dyb3VuZCI+PC9yZWN0PjwvZz48Zz48cmVjdCBzdHlsZT0ic3Ryb2tlOiBub25lIiBjbGFzcz0iYmFja2dyb3VuZCI+PC9yZWN0PjwvZz48Zz48cmVjdCBzdHlsZT0ic3Ryb2tlOiBub25lIiBjbGFzcz0iYmFja2dyb3VuZCI+PC9yZWN0PjwvZz48Zz48cmVjdCBzdHlsZT0ic3Ryb2tlOiBub25lIiBjbGFzcz0iYmFja2dyb3VuZCI+PC9yZWN0PjwvZz48Zz48cmVjdCBzdHlsZT0ic3Ryb2tlOiBub25lIiBjbGFzcz0iYmFja2dyb3VuZCI+PC9yZWN0PjwvZz48Zz48cmVjdCBzdHlsZT0ic3Ryb2tlOiBub25lIiBjbGFzcz0iYmFja2dyb3VuZCI+PC9yZWN0PjwvZz48Zz48cmVjdCBzdHlsZT0ic3Ryb2tlOiBub25lIiBjbGFzcz0iYmFja2dyb3VuZCI+PC9yZWN0PjwvZz48Zz48cmVjdCBzdHlsZT0ic3Ryb2tlOiBub25lIiBjbGFzcz0iYmFja2dyb3VuZCI+PC9yZWN0PjwvZz48Zz48cmVjdCBzdHlsZT0ic3Ryb2tlOiBub25lIiBjbGFzcz0iYmFja2dyb3VuZCI+PC9yZWN0PjwvZz48Zz48cmVjdCBzdHlsZT0ic3Ryb2tlOiBub25lIiBjbGFzcz0iYmFja2dyb3VuZCI+PC9yZWN0PjwvZz48Zz48cmVjdCBzdHlsZT0ic3Ryb2tlOiBub25lIiBjbGFzcz0iYmFja2dyb3VuZCI+PC9yZWN0PjwvZz48Zz48cmVjdCBzdHlsZT0ic3Ryb2tlOiBub25lIiBjbGFzcz0iYmFja2dyb3VuZCI+PC9yZWN0PjwvZz48Zz48cmVjdCBzdHlsZT0ic3Ryb2tlOiBub25lIiBjbGFzcz0iYmFja2dyb3VuZCI+PC9yZWN0PjwvZz48ZyBjbGFzcz0iZWRnZUxhYmVsIj48ZyB0cmFuc2Zvcm09InRyYW5zbGF0ZSgwLCAwKSIgY2xhc3M9ImxhYmVsIj48dGV4dCB5PSItMTAuMSI+PHRzcGFuIGR5PSIxLjFlbSIgeT0iLTAuMWVtIiB4PSIwIiBjbGFzcz0idGV4dC1vdXRlci10c3BhbiI+PC90c3Bhbj48L3RleHQ+PC9nPjwvZz48ZyBjbGFzcz0iZWRnZUxhYmVsIj48ZyB0cmFuc2Zvcm09InRyYW5zbGF0ZSgwLCAwKSIgY2xhc3M9ImxhYmVsIj48dGV4dCB5PSItMTAuMSI+PHRzcGFuIGR5PSIxLjFlbSIgeT0iLTAuMWVtIiB4PSIwIiBjbGFzcz0idGV4dC1vdXRlci10c3BhbiI+PC90c3Bhbj48L3RleHQ+PC9nPjwvZz48ZyB0cmFuc2Zvcm09InRyYW5zbGF0ZSgxMjYuMzEyNTA3NjI5Mzk0NTMsIDQ0Ny45OTEwNzE3MDEwNDk4KSIgY2xhc3M9ImVkZ2VMYWJlbCI+PGcgdHJhbnNmb3JtPSJ0cmFuc2xhdGUoLTExLjM5NTA4OTE0OTQ3NTA5OCwgLTExLjQyODU3MTcwMTA0OTgwNSkiIGNsYXNzPSJsYWJlbCI+PGc+PHJlY3QgaGVpZ2h0PSIyMi44NTcxNDM0MDIwOTk2MSIgd2lkdGg9IjIyLjc5MDE3ODI5ODk1MDE5NSIgeT0iLTEuNDI4NTcxOTM5NDY4MzgzOCIgeD0iLTIiIHN0eWxlPSIiIGNsYXNzPSJiYWNrZ3JvdW5kIj48L3JlY3Q+PHRleHQgc3R5bGU9IiIgeT0iLTEwLjEiPjx0c3BhbiBkeT0iMS4xZW0iIHk9Ii0wLjFlbSIgeD0iMCIgY2xhc3M9InRleHQtb3V0ZXItdHNwYW4iPjx0c3BhbiBmb250LXdlaWdodD0ibm9ybWFsIiBjbGFzcz0idGV4dC1pbm5lci10c3BhbiIgZm9udC1zdHlsZT0ibm9ybWFsIj5ObzwvdHNwYW4+PC90c3Bhbj48L3RleHQ+PC9nPjwvZz48L2c+PGcgdHJhbnNmb3JtPSJ0cmFuc2xhdGUoNDI0LjYyMjc4NzQ3NTU4NTk0LCA0NDcuOTkxMDcxNzAxMDQ5OCkiIGNsYXNzPSJlZGdlTGFiZWwiPjxnIHRyYW5zZm9ybT0idHJhbnNsYXRlKC0xMy45NDAxOTEyNjg5MjA4OTgsIC0xMS40Mjg1NzE3MDEwNDk4MDUpIiBjbGFzcz0ibGFiZWwiPjxnPjxyZWN0IGhlaWdodD0iMjIuODU3MTQzNDAyMDk5NjEiIHdpZHRoPSIyNy44ODAzODA2MzA0OTMxNjQiIHk9Ii0xLjQyODU3MTkzOTQ2ODM4MzgiIHg9Ii0yLjg1NzE0Mjg2NTY1NzgwNjQiIHN0eWxlPSIiIGNsYXNzPSJiYWNrZ3JvdW5kIj48L3JlY3Q+PHRleHQgc3R5bGU9IiIgeT0iLTEwLjEiPjx0c3BhbiBkeT0iMS4xZW0iIHk9Ii0wLjFlbSIgeD0iMCIgY2xhc3M9InRleHQtb3V0ZXItdHNwYW4iPjx0c3BhbiBmb250LXdlaWdodD0ibm9ybWFsIiBjbGFzcz0idGV4dC1pbm5lci10c3BhbiIgZm9udC1zdHlsZT0ibm9ybWFsIj5ZZXM8L3RzcGFuPjwvdHNwYW4+PC90ZXh0PjwvZz48L2c+PC9nPjxnIGNsYXNzPSJlZGdlTGFiZWwiPjxnIHRyYW5zZm9ybT0idHJhbnNsYXRlKDAsIDApIiBjbGFzcz0ibGFiZWwiPjx0ZXh0IHk9Ii0xMC4xIj48dHNwYW4gZHk9IjEuMWVtIiB5PSItMC4xZW0iIHg9IjAiIGNsYXNzPSJ0ZXh0LW91dGVyLXRzcGFuIj48L3RzcGFuPjwvdGV4dD48L2c+PC9nPjxnIGNsYXNzPSJlZGdlTGFiZWwiPjxnIHRyYW5zZm9ybT0idHJhbnNsYXRlKDAsIDApIiBjbGFzcz0ibGFiZWwiPjx0ZXh0IHk9Ii0xMC4xIj48dHNwYW4gZHk9IjEuMWVtIiB5PSItMC4xZW0iIHg9IjAiIGNsYXNzPSJ0ZXh0LW91dGVyLXRzcGFuIj48L3RzcGFuPjwvdGV4dD48L2c+PC9nPjxnIGNsYXNzPSJlZGdlTGFiZWwiPjxnIHRyYW5zZm9ybT0idHJhbnNsYXRlKDAsIDApIiBjbGFzcz0ibGFiZWwiPjx0ZXh0IHk9Ii0xMC4xIj48dHNwYW4gZHk9IjEuMWVtIiB5PSItMC4xZW0iIHg9IjAiIGNsYXNzPSJ0ZXh0LW91dGVyLXRzcGFuIj48L3RzcGFuPjwvdGV4dD48L2c+PC9nPjxnIGNsYXNzPSJlZGdlTGFiZWwiPjxnIHRyYW5zZm9ybT0idHJhbnNsYXRlKDAsIDApIiBjbGFzcz0ibGFiZWwiPjx0ZXh0IHk9Ii0xMC4xIj48dHNwYW4gZHk9IjEuMWVtIiB5PSItMC4xZW0iIHg9IjAiIGNsYXNzPSJ0ZXh0LW91dGVyLXRzcGFuIj48L3RzcGFuPjwvdGV4dD48L2c+PC9nPjxnIGNsYXNzPSJlZGdlTGFiZWwiPjxnIHRyYW5zZm9ybT0idHJhbnNsYXRlKDAsIDApIiBjbGFzcz0ibGFiZWwiPjx0ZXh0IHk9Ii0xMC4xIj48dHNwYW4gZHk9IjEuMWVtIiB5PSItMC4xZW0iIHg9IjAiIGNsYXNzPSJ0ZXh0LW91dGVyLXRzcGFuIj48L3RzcGFuPjwvdGV4dD48L2c+PC9nPjxnIGNsYXNzPSJlZGdlTGFiZWwiPjxnIHRyYW5zZm9ybT0idHJhbnNsYXRlKDAsIDApIiBjbGFzcz0ibGFiZWwiPjx0ZXh0IHk9Ii0xMC4xIj48dHNwYW4gZHk9IjEuMWVtIiB5PSItMC4xZW0iIHg9IjAiIGNsYXNzPSJ0ZXh0LW91dGVyLXRzcGFuIj48L3RzcGFuPjwvdGV4dD48L2c+PC9nPjxnIGNsYXNzPSJlZGdlTGFiZWwiPjxnIHRyYW5zZm9ybT0idHJhbnNsYXRlKDAsIDApIiBjbGFzcz0ibGFiZWwiPjx0ZXh0IHk9Ii0xMC4xIj48dHNwYW4gZHk9IjEuMWVtIiB5PSItMC4xZW0iIHg9IjAiIGNsYXNzPSJ0ZXh0LW91dGVyLXRzcGFuIj48L3RzcGFuPjwvdGV4dD48L2c+PC9nPjxnIGNsYXNzPSJlZGdlTGFiZWwiPjxnIHRyYW5zZm9ybT0idHJhbnNsYXRlKDAsIDApIiBjbGFzcz0ibGFiZWwiPjx0ZXh0IHk9Ii0xMC4xIj48dHNwYW4gZHk9IjEuMWVtIiB5PSItMC4xZW0iIHg9IjAiIGNsYXNzPSJ0ZXh0LW91dGVyLXRzcGFuIj48L3RzcGFuPjwvdGV4dD48L2c+PC9nPjxnIHRyYW5zZm9ybT0idHJhbnNsYXRlKDY0Ni4yNzY4MTM1MDcwODAxLCAxNjA2Ljg0Mzc1OTUzNjc0MzIpIiBjbGFzcz0iZWRnZUxhYmVsIj48ZyB0cmFuc2Zvcm09InRyYW5zbGF0ZSgtMTMuOTQwMTkxMjY4OTIwODk4LCAtMTEuNDI4NTcxNzAxMDQ5ODA1KSIgY2xhc3M9ImxhYmVsIj48Zz48cmVjdCBoZWlnaHQ9IjIyLjg1NzE0MzQwMjA5OTYxIiB3aWR0aD0iMjcuODgwMzgwNjMwNDkzMTY0IiB5PSItMS40Mjg1NzE5Mzk0NjgzODM4IiB4PSItMi44NTcxNDI4NjU2NTc4MDY0IiBzdHlsZT0iIiBjbGFzcz0iYmFja2dyb3VuZCI+PC9yZWN0Pjx0ZXh0IHN0eWxlPSIiIHk9Ii0xMC4xIj48dHNwYW4gZHk9IjEuMWVtIiB5PSItMC4xZW0iIHg9IjAiIGNsYXNzPSJ0ZXh0LW91dGVyLXRzcGFuIj48dHNwYW4gZm9udC13ZWlnaHQ9Im5vcm1hbCIgY2xhc3M9InRleHQtaW5uZXItdHNwYW4iIGZvbnQtc3R5bGU9Im5vcm1hbCI+WWVzPC90c3Bhbj48L3RzcGFuPjwvdGV4dD48L2c+PC9nPjwvZz48ZyBjbGFzcz0iZWRnZUxhYmVsIj48ZyB0cmFuc2Zvcm09InRyYW5zbGF0ZSgwLCAwKSIgY2xhc3M9ImxhYmVsIj48dGV4dCB5PSItMTAuMSI+PHRzcGFuIGR5PSIxLjFlbSIgeT0iLTAuMWVtIiB4PSIwIiBjbGFzcz0idGV4dC1vdXRlci10c3BhbiI+PC90c3Bhbj48L3RleHQ+PC9nPjwvZz48ZyB0cmFuc2Zvcm09InRyYW5zbGF0ZSgzMzYuMjgxMjY5MDczNDg2MywgMTYwNi44NDM3NTk1MzY3NDMyKSIgY2xhc3M9ImVkZ2VMYWJlbCI+PGcgdHJhbnNmb3JtPSJ0cmFuc2xhdGUoLTExLjM5NTA4OTE0OTQ3NTA5OCwgLTExLjQyODU3MTcwMTA0OTgwNSkiIGNsYXNzPSJsYWJlbCI+PGc+PHJlY3QgaGVpZ2h0PSIyMi44NTcxNDM0MDIwOTk2MSIgd2lkdGg9IjIyLjc5MDE3ODI5ODk1MDE5NSIgeT0iLTEuNDI4NTcxOTM5NDY4MzgzOCIgeD0iLTIiIHN0eWxlPSIiIGNsYXNzPSJiYWNrZ3JvdW5kIj48L3JlY3Q+PHRleHQgc3R5bGU9IiIgeT0iLTEwLjEiPjx0c3BhbiBkeT0iMS4xZW0iIHk9Ii0wLjFlbSIgeD0iMCIgY2xhc3M9InRleHQtb3V0ZXItdHNwYW4iPjx0c3BhbiBmb250LXdlaWdodD0ibm9ybWFsIiBjbGFzcz0idGV4dC1pbm5lci10c3BhbiIgZm9udC1zdHlsZT0ibm9ybWFsIj5ObzwvdHNwYW4+PC90c3Bhbj48L3RleHQ+PC9nPjwvZz48L2c+PGcgY2xhc3M9ImVkZ2VMYWJlbCI+PGcgdHJhbnNmb3JtPSJ0cmFuc2xhdGUoMCwgMCkiIGNsYXNzPSJsYWJlbCI+PHRleHQgeT0iLTEwLjEiPjx0c3BhbiBkeT0iMS4xZW0iIHk9Ii0wLjFlbSIgeD0iMCIgY2xhc3M9InRleHQtb3V0ZXItdHNwYW4iPjwvdHNwYW4+PC90ZXh0PjwvZz48L2c+PGcgY2xhc3M9ImVkZ2VMYWJlbCI+PGcgdHJhbnNmb3JtPSJ0cmFuc2xhdGUoMCwgMCkiIGNsYXNzPSJsYWJlbCI+PHRleHQgeT0iLTEwLjEiPjx0c3BhbiBkeT0iMS4xZW0iIHk9Ii0wLjFlbSIgeD0iMCIgY2xhc3M9InRleHQtb3V0ZXItdHNwYW4iPjwvdHNwYW4+PC90ZXh0PjwvZz48L2c+PGcgdHJhbnNmb3JtPSJ0cmFuc2xhdGUoMjU5LjYyNTAxNTI1ODc4OTA2LCAyMDU5LjM0Mzc3MDk4MDgzNSkiIGNsYXNzPSJlZGdlTGFiZWwiPjxnIHRyYW5zZm9ybT0idHJhbnNsYXRlKC0xMy45NDAxOTEyNjg5MjA4OTgsIC0xMS40Mjg1NzE3MDEwNDk4MDUpIiBjbGFzcz0ibGFiZWwiPjxnPjxyZWN0IGhlaWdodD0iMjIuODU3MTQzNDAyMDk5NjEiIHdpZHRoPSIyNy44ODAzODA2MzA0OTMxNjQiIHk9Ii0xLjQyODU3MTkzOTQ2ODM4MzgiIHg9Ii0yLjg1NzE0Mjg2NTY1NzgwNjQiIHN0eWxlPSIiIGNsYXNzPSJiYWNrZ3JvdW5kIj48L3JlY3Q+PHRleHQgc3R5bGU9IiIgeT0iLTEwLjEiPjx0c3BhbiBkeT0iMS4xZW0iIHk9Ii0wLjFlbSIgeD0iMCIgY2xhc3M9InRleHQtb3V0ZXItdHNwYW4iPjx0c3BhbiBmb250LXdlaWdodD0ibm9ybWFsIiBjbGFzcz0idGV4dC1pbm5lci10c3BhbiIgZm9udC1zdHlsZT0ibm9ybWFsIj5ZZXM8L3RzcGFuPjwvdHNwYW4+PC90ZXh0PjwvZz48L2c+PC9nPjxnIGNsYXNzPSJlZGdlTGFiZWwiPjxnIHRyYW5zZm9ybT0idHJhbnNsYXRlKDAsIDApIiBjbGFzcz0ibGFiZWwiPjx0ZXh0IHk9Ii0xMC4xIj48dHNwYW4gZHk9IjEuMWVtIiB5PSItMC4xZW0iIHg9IjAiIGNsYXNzPSJ0ZXh0LW91dGVyLXRzcGFuIj48L3RzcGFuPjwvdGV4dD48L2c+PC9nPjxnIGNsYXNzPSJlZGdlTGFiZWwiPjxnIHRyYW5zZm9ybT0idHJhbnNsYXRlKDAsIDApIiBjbGFzcz0ibGFiZWwiPjx0ZXh0IHk9Ii0xMC4xIj48dHNwYW4gZHk9IjEuMWVtIiB5PSItMC4xZW0iIHg9IjAiIGNsYXNzPSJ0ZXh0LW91dGVyLXRzcGFuIj48L3RzcGFuPjwvdGV4dD48L2c+PC9nPjxnIHRyYW5zZm9ybT0idHJhbnNsYXRlKDQzNi43MTA5NTY1NzM0ODYzLCAyMzAzLjg0Mzc4MjQyNDkyNjgpIiBjbGFzcz0iZWRnZUxhYmVsIj48ZyB0cmFuc2Zvcm09InRyYW5zbGF0ZSgtMTEuMzk1MDg5MTQ5NDc1MDk4LCAtMTEuNDI4NTcxNzAxMDQ5ODA1KSIgY2xhc3M9ImxhYmVsIj48Zz48cmVjdCBoZWlnaHQ9IjIyLjg1NzE0MzQwMjA5OTYxIiB3aWR0aD0iMjIuNzkwMTc4Mjk4OTUwMTk1IiB5PSItMS40Mjg1NzE5Mzk0NjgzODM4IiB4PSItMiIgc3R5bGU9IiIgY2xhc3M9ImJhY2tncm91bmQiPjwvcmVjdD48dGV4dCBzdHlsZT0iIiB5PSItMTAuMSI+PHRzcGFuIGR5PSIxLjFlbSIgeT0iLTAuMWVtIiB4PSIwIiBjbGFzcz0idGV4dC1vdXRlci10c3BhbiI+PHRzcGFuIGZvbnQtd2VpZ2h0PSJub3JtYWwiIGNsYXNzPSJ0ZXh0LWlubmVyLXRzcGFuIiBmb250LXN0eWxlPSJub3JtYWwiPk5vPC90c3Bhbj48L3RzcGFuPjwvdGV4dD48L2c+PC9nPjwvZz48ZyBjbGFzcz0iZWRnZUxhYmVsIj48ZyB0cmFuc2Zvcm09InRyYW5zbGF0ZSgwLCAwKSIgY2xhc3M9ImxhYmVsIj48dGV4dCB5PSItMTAuMSI+PHRzcGFuIGR5PSIxLjFlbSIgeT0iLTAuMWVtIiB4PSIwIiBjbGFzcz0idGV4dC1vdXRlci10c3BhbiI+PC90c3Bhbj48L3RleHQ+PC9nPjwvZz48ZyB0cmFuc2Zvcm09InRyYW5zbGF0ZSgxODcuMTI2MTI5MTUwMzkwNjIsIDI4MzguNjk2NDcwMjYwNjIpIiBjbGFzcz0iZWRnZUxhYmVsIj48ZyB0cmFuc2Zvcm09InRyYW5zbGF0ZSgtMTMuOTQwMTkxMjY4OTIwODk4LCAtMTEuNDI4NTcxNzAxMDQ5ODA1KSIgY2xhc3M9ImxhYmVsIj48Zz48cmVjdCBoZWlnaHQ9IjIyLjg1NzE0MzQwMjA5OTYxIiB3aWR0aD0iMjcuODgwMzgwNjMwNDkzMTY0IiB5PSItMS40Mjg1NzE5Mzk0NjgzODM4IiB4PSItMi44NTcxNDI4NjU2NTc4MDY0IiBzdHlsZT0iIiBjbGFzcz0iYmFja2dyb3VuZCI+PC9yZWN0Pjx0ZXh0IHN0eWxlPSIiIHk9Ii0xMC4xIj48dHNwYW4gZHk9IjEuMWVtIiB5PSItMC4xZW0iIHg9IjAiIGNsYXNzPSJ0ZXh0LW91dGVyLXRzcGFuIj48dHNwYW4gZm9udC13ZWlnaHQ9Im5vcm1hbCIgY2xhc3M9InRleHQtaW5uZXItdHNwYW4iIGZvbnQtc3R5bGU9Im5vcm1hbCI+WWVzPC90c3Bhbj48L3RzcGFuPjwvdGV4dD48L2c+PC9nPjwvZz48ZyB0cmFuc2Zvcm09InRyYW5zbGF0ZSg1OTUuMzE4MTA0MjY3MTIwNCwgMjgzOC42OTY0NzAyNjA2MikiIGNsYXNzPSJlZGdlTGFiZWwiPjxnIHRyYW5zZm9ybT0idHJhbnNsYXRlKC0xMS4zOTUwODkxNDk0NzUwOTgsIC0xMS40Mjg1NzE3MDEwNDk4MDUpIiBjbGFzcz0ibGFiZWwiPjxnPjxyZWN0IGhlaWdodD0iMjIuODU3MTQzNDAyMDk5NjEiIHdpZHRoPSIyMi43OTAxNzgyOTg5NTAxOTUiIHk9Ii0xLjQyODU3MTkzOTQ2ODM4MzgiIHg9Ii0yIiBzdHlsZT0iIiBjbGFzcz0iYmFja2dyb3VuZCI+PC9yZWN0Pjx0ZXh0IHN0eWxlPSIiIHk9Ii0xMC4xIj48dHNwYW4gZHk9IjEuMWVtIiB5PSItMC4xZW0iIHg9IjAiIGNsYXNzPSJ0ZXh0LW91dGVyLXRzcGFuIj48dHNwYW4gZm9udC13ZWlnaHQ9Im5vcm1hbCIgY2xhc3M9InRleHQtaW5uZXItdHNwYW4iIGZvbnQtc3R5bGU9Im5vcm1hbCI+Tm88L3RzcGFuPjwvdHNwYW4+PC90ZXh0PjwvZz48L2c+PC9nPjxnIGNsYXNzPSJlZGdlTGFiZWwiPjxnIHRyYW5zZm9ybT0idHJhbnNsYXRlKDAsIDApIiBjbGFzcz0ibGFiZWwiPjx0ZXh0IHk9Ii0xMC4xIj48dHNwYW4gZHk9IjEuMWVtIiB5PSItMC4xZW0iIHg9IjAiIGNsYXNzPSJ0ZXh0LW91dGVyLXRzcGFuIj48L3RzcGFuPjwvdGV4dD48L2c+PC9nPjxnIGNsYXNzPSJlZGdlTGFiZWwiPjxnIHRyYW5zZm9ybT0idHJhbnNsYXRlKDAsIDApIiBjbGFzcz0ibGFiZWwiPjx0ZXh0IHk9Ii0xMC4xIj48dHNwYW4gZHk9IjEuMWVtIiB5PSItMC4xZW0iIHg9IjAiIGNsYXNzPSJ0ZXh0LW91dGVyLXRzcGFuIj48L3RzcGFuPjwvdGV4dD48L2c+PC9nPjxnIGNsYXNzPSJlZGdlTGFiZWwiPjxnIHRyYW5zZm9ybT0idHJhbnNsYXRlKDAsIDApIiBjbGFzcz0ibGFiZWwiPjx0ZXh0IHk9Ii0xMC4xIj48dHNwYW4gZHk9IjEuMWVtIiB5PSItMC4xZW0iIHg9IjAiIGNsYXNzPSJ0ZXh0LW91dGVyLXRzcGFuIj48L3RzcGFuPjwvdGV4dD48L2c+PC9nPjxnIGNsYXNzPSJlZGdlTGFiZWwiPjxnIHRyYW5zZm9ybT0idHJhbnNsYXRlKDAsIDApIiBjbGFzcz0ibGFiZWwiPjx0ZXh0IHk9Ii0xMC4xIj48dHNwYW4gZHk9IjEuMWVtIiB5PSItMC4xZW0iIHg9IjAiIGNsYXNzPSJ0ZXh0LW91dGVyLXRzcGFuIj48L3RzcGFuPjwvdGV4dD48L2c+PC9nPjxnIGNsYXNzPSJlZGdlTGFiZWwiPjxnIHRyYW5zZm9ybT0idHJhbnNsYXRlKDAsIDApIiBjbGFzcz0ibGFiZWwiPjx0ZXh0IHk9Ii0xMC4xIj48dHNwYW4gZHk9IjEuMWVtIiB5PSItMC4xZW0iIHg9IjAiIGNsYXNzPSJ0ZXh0LW91dGVyLXRzcGFuIj48L3RzcGFuPjwvdGV4dD48L2c+PC9nPjxnIHRyYW5zZm9ybT0idHJhbnNsYXRlKDc0MC4zMTU4NzY0ODM5MTcyLCAyMzAzLjg0Mzc4MjQyNDkyNjgpIiBjbGFzcz0iZWRnZUxhYmVsIj48ZyB0cmFuc2Zvcm09InRyYW5zbGF0ZSgtMTMuOTQwMTkxMjY4OTIwODk4LCAtMTEuNDI4NTcxNzAxMDQ5ODA1KSIgY2xhc3M9ImxhYmVsIj48Zz48cmVjdCBoZWlnaHQ9IjIyLjg1NzE0MzQwMjA5OTYxIiB3aWR0aD0iMjcuODgwMzgwNjMwNDkzMTY0IiB5PSItMS40Mjg1NzE5Mzk0NjgzODM4IiB4PSItMi44NTcxNDI4NjU2NTc4MDY0IiBzdHlsZT0iIiBjbGFzcz0iYmFja2dyb3VuZCI+PC9yZWN0Pjx0ZXh0IHN0eWxlPSIiIHk9Ii0xMC4xIj48dHNwYW4gZHk9IjEuMWVtIiB5PSItMC4xZW0iIHg9IjAiIGNsYXNzPSJ0ZXh0LW91dGVyLXRzcGFuIj48dHNwYW4gZm9udC13ZWlnaHQ9Im5vcm1hbCIgY2xhc3M9InRleHQtaW5uZXItdHNwYW4iIGZvbnQtc3R5bGU9Im5vcm1hbCI+WWVzPC90c3Bhbj48L3RzcGFuPjwvdGV4dD48L2c+PC9nPjwvZz48ZyB0cmFuc2Zvcm09InRyYW5zbGF0ZSg1MTIuODE5MjE4MTU4NzIxOSwgMjM2Ny4yNzIzNTQxMjU5NzY2KSIgY2xhc3M9ImVkZ2VMYWJlbCI+PGcgdHJhbnNmb3JtPSJ0cmFuc2xhdGUoLTExLjM5NTA4OTE0OTQ3NTA5OCwgLTExLjQyODU3MTcwMTA0OTgwNSkiIGNsYXNzPSJsYWJlbCI+PGc+PHJlY3QgaGVpZ2h0PSIyMi44NTcxNDM0MDIwOTk2MSIgd2lkdGg9IjIyLjc5MDE3ODI5ODk1MDE5NSIgeT0iLTEuNDI4NTcxOTM5NDY4MzgzOCIgeD0iLTIiIHN0eWxlPSIiIGNsYXNzPSJiYWNrZ3JvdW5kIj48L3JlY3Q+PHRleHQgc3R5bGU9IiIgeT0iLTEwLjEiPjx0c3BhbiBkeT0iMS4xZW0iIHk9Ii0wLjFlbSIgeD0iMCIgY2xhc3M9InRleHQtb3V0ZXItdHNwYW4iPjx0c3BhbiBmb250LXdlaWdodD0ibm9ybWFsIiBjbGFzcz0idGV4dC1pbm5lci10c3BhbiIgZm9udC1zdHlsZT0ibm9ybWFsIj5ObzwvdHNwYW4+PC90c3Bhbj48L3RleHQ+PC9nPjwvZz48L2c+PGcgY2xhc3M9ImVkZ2VMYWJlbCI+PGcgdHJhbnNmb3JtPSJ0cmFuc2xhdGUoMCwgMCkiIGNsYXNzPSJsYWJlbCI+PHRleHQgeT0iLTEwLjEiPjx0c3BhbiBkeT0iMS4xZW0iIHk9Ii0wLjFlbSIgeD0iMCIgY2xhc3M9InRleHQtb3V0ZXItdHNwYW4iPjwvdHNwYW4+PC90ZXh0PjwvZz48L2c+PGcgY2xhc3M9ImVkZ2VMYWJlbCI+PGcgdHJhbnNmb3JtPSJ0cmFuc2xhdGUoMCwgMCkiIGNsYXNzPSJsYWJlbCI+PHRleHQgeT0iLTEwLjEiPjx0c3BhbiBkeT0iMS4xZW0iIHk9Ii0wLjFlbSIgeD0iMCIgY2xhc3M9InRleHQtb3V0ZXItdHNwYW4iPjwvdHNwYW4+PC90ZXh0PjwvZz48L2c+PC9nPjxnIGNsYXNzPSJub2RlcyI+PGcgdHJhbnNmb3JtPSJ0cmFuc2xhdGUoMzU3Ljk2NjUzMzY2MDg4ODcsIDM1KSIgaWQ9ImZsb3djaGFydC1BLTk1IiBjbGFzcz0ibm9kZSBkZWZhdWx0Ij48cmVjdCBoZWlnaHQ9IjU0IiB3aWR0aD0iMTUyLjM4MzkyNjM5MTYwMTU2IiB5PSItMjciIHg9Ii03Ni4xOTE5NjMxOTU4MDA3OCIgc3R5bGU9IiIgY2xhc3M9ImJhc2ljIGxhYmVsLWNvbnRhaW5lciI+PC9yZWN0PjxnIHRyYW5zZm9ybT0idHJhbnNsYXRlKC00Ni4xOTE5NjMxOTU4MDA3OCwgLTEyKSIgc3R5bGU9IiIgY2xhc3M9ImxhYmVsIj48cmVjdD48L3JlY3Q+PGZvcmVpZ25PYmplY3QgaGVpZ2h0PSIyNCIgd2lkdGg9IjkyLjM4MzkyNjM5MTYwMTU2Ij48ZGl2IHN0eWxlPSJkaXNwbGF5OiB0YWJsZS1jZWxsOyB3aGl0ZS1zcGFjZTogbm93cmFwOyBsaW5lLWhlaWdodDogMS41OyBtYXgtd2lkdGg6IDIwMHB4OyB0ZXh0LWFsaWduOiBjZW50ZXI7IiB4bWxucz0iaHR0cDovL3d3dy53My5vcmcvMTk5OS94aHRtbCI+PHNwYW4gY2xhc3M9Im5vZGVMYWJlbCI+PHA+U3RhcnQgUHJvY2VzczwvcD48L3NwYW4+PC9kaXY+PC9mb3JlaWduT2JqZWN0PjwvZz48L2c+PGcgdHJhbnNmb3JtPSJ0cmFuc2xhdGUoMzU3Ljk2NjUzMzY2MDg4ODcsIDEzOSkiIGlkPSJmbG93Y2hhcnQtQi05NiIgY2xhc3M9Im5vZGUgZGVmYXVsdCI+PHJlY3QgaGVpZ2h0PSI1NCIgd2lkdGg9IjI1OS45OTU1NDQ0MzM1OTM3NSIgeT0iLTI3IiB4PSItMTI5Ljk5Nzc3MjIxNjc5Njg4IiBzdHlsZT0iIiBjbGFzcz0iYmFzaWMgbGFiZWwtY29udGFpbmVyIj48L3JlY3Q+PGcgdHJhbnNmb3JtPSJ0cmFuc2xhdGUoLTk5Ljk5Nzc3MjIxNjc5Njg4LCAtMTIpIiBzdHlsZT0iIiBjbGFzcz0ibGFiZWwiPjxyZWN0PjwvcmVjdD48Zm9yZWlnbk9iamVjdCBoZWlnaHQ9IjI0IiB3aWR0aD0iMTk5Ljk5NTU0NDQzMzU5Mzc1Ij48ZGl2IHN0eWxlPSJkaXNwbGF5OiB0YWJsZS1jZWxsOyB3aGl0ZS1zcGFjZTogbm93cmFwOyBsaW5lLWhlaWdodDogMS41OyBtYXgtd2lkdGg6IDIwMHB4OyB0ZXh0LWFsaWduOiBjZW50ZXI7IiB4bWxucz0iaHR0cDovL3d3dy53My5vcmcvMTk5OS94aHRtbCI+PHNwYW4gY2xhc3M9Im5vZGVMYWJlbCI+PHA+UmV0cmlldmUgcGVuZGluZyBtaXNzaW9uIGlkIGZyb20gZGF0YWJhc2U8L3A+PC9zcGFuPjwvZGl2PjwvZm9yZWlnbk9iamVjdD48L2c+PC9nPjxnIHRyYW5zZm9ybT0idHJhbnNsYXRlKDI3NS40Njc2NDc1NTI0OTAyMywgMzEzLjc4MTI1KSIgaWQ9ImZsb3djaGFydC1DLTk3IiBjbGFzcz0ibm9kZSBkZWZhdWx0Ij48cG9seWdvbiB0cmFuc2Zvcm09InRyYW5zbGF0ZSgtOTcuNzgxMjUsOTcuNzgxMjUpIiBjbGFzcz0ibGFiZWwtY29udGFpbmVyIiBwb2ludHM9Ijk3Ljc4MTI1LDAgMTk1LjU2MjUsLTk3Ljc4MTI1IDk3Ljc4MTI1LC0xOTUuNTYyNSAwLC05Ny43ODEyNSI+PC9wb2x5Z29uPjxnIHRyYW5zZm9ybT0idHJhbnNsYXRlKC03MC43ODEyNSwgLTEyKSIgc3R5bGU9IiIgY2xhc3M9ImxhYmVsIj48cmVjdD48L3JlY3Q+PGZvcmVpZ25PYmplY3QgaGVpZ2h0PSIyNCIgd2lkdGg9IjE0MS41NjI1Ij48ZGl2IHN0eWxlPSJkaXNwbGF5OiB0YWJsZS1jZWxsOyB3aGl0ZS1zcGFjZTogbm93cmFwOyBsaW5lLWhlaWdodDogMS41OyBtYXgtd2lkdGg6IDIwMHB4OyB0ZXh0LWFsaWduOiBjZW50ZXI7IiB4bWxucz0iaHR0cDovL3d3dy53My5vcmcvMTk5OS94aHRtbCI+PHNwYW4gY2xhc3M9Im5vZGVMYWJlbCI+PHA+UGVuZGluZyB0YXNrIGZvdW5kPzwvcD48L3NwYW4+PC9kaXY+PC9mb3JlaWduT2JqZWN0PjwvZz48L2c+PGcgdHJhbnNmb3JtPSJ0cmFuc2xhdGUoMTI2LjMxMjUwNzYyOTM5NDUzLCA1MTEuNDE5NjQzNDAyMDk5NikiIGlkPSJmbG93Y2hhcnQtRC05OCIgY2xhc3M9Im5vZGUgZGVmYXVsdCI+PHJlY3QgaGVpZ2h0PSI1NCIgd2lkdGg9IjIzNi42MjUiIHk9Ii0yNyIgeD0iLTExOC4zMTI1IiBzdHlsZT0iIiBjbGFzcz0iYmFzaWMgbGFiZWwtY29udGFpbmVyIj48L3JlY3Q+PGcgdHJhbnNmb3JtPSJ0cmFuc2xhdGUoLTg4LjMxMjUsIC0xMikiIHN0eWxlPSIiIGNsYXNzPSJsYWJlbCI+PHJlY3Q+PC9yZWN0Pjxmb3JlaWduT2JqZWN0IGhlaWdodD0iMjQiIHdpZHRoPSIxNzYuNjI1Ij48ZGl2IHN0eWxlPSJkaXNwbGF5OiB0YWJsZS1jZWxsOyB3aGl0ZS1zcGFjZTogbm93cmFwOyBsaW5lLWhlaWdodDogMS41OyBtYXgtd2lkdGg6IDIwMHB4OyB0ZXh0LWFsaWduOiBjZW50ZXI7IiB4bWxucz0iaHR0cDovL3d3dy53My5vcmcvMTk5OS94aHRtbCI+PHNwYW4gY2xhc3M9Im5vZGVMYWJlbCI+PHA+RXhpdCBhbmQgd2FpdCAxMCBzZWNvbmRzPC9wPjwvc3Bhbj48L2Rpdj48L2ZvcmVpZ25PYmplY3Q+PC9nPjwvZz48ZyB0cmFuc2Zvcm09InRyYW5zbGF0ZSg0MjQuNjIyNzg3NDc1NTg1OTQsIDUxMS40MTk2NDM0MDIwOTk2KSIgaWQ9ImZsb3djaGFydC1FLTk5IiBjbGFzcz0ibm9kZSBkZWZhdWx0Ij48cmVjdCBoZWlnaHQ9IjU0IiB3aWR0aD0iMjU5Ljk5NTU0NDQzMzU5Mzc1IiB5PSItMjciIHg9Ii0xMjkuOTk3NzcyMjE2Nzk2ODgiIHN0eWxlPSIiIGNsYXNzPSJiYXNpYyBsYWJlbC1jb250YWluZXIiPjwvcmVjdD48ZyB0cmFuc2Zvcm09InRyYW5zbGF0ZSgtOTkuOTk3NzcyMjE2Nzk2ODgsIC0xMikiIHN0eWxlPSIiIGNsYXNzPSJsYWJlbCI+PHJlY3Q+PC9yZWN0Pjxmb3JlaWduT2JqZWN0IGhlaWdodD0iMjQiIHdpZHRoPSIxOTkuOTk1NTQ0NDMzNTkzNzUiPjxkaXYgc3R5bGU9ImRpc3BsYXk6IHRhYmxlLWNlbGw7IHdoaXRlLXNwYWNlOiBub3dyYXA7IGxpbmUtaGVpZ2h0OiAxLjU7IG1heC13aWR0aDogMjAwcHg7IHRleHQtYWxpZ246IGNlbnRlcjsiIHhtbG5zPSJodHRwOi8vd3d3LnczLm9yZy8xOTk5L3hodG1sIj48c3BhbiBjbGFzcz0ibm9kZUxhYmVsIj48cD5DYWxsIE1pc3Npb25Xb3JrcyBBUEkgd2l0aCBtaXNzaW9uIGlkPC9wPjwvc3Bhbj48L2Rpdj48L2ZvcmVpZ25PYmplY3Q+PC9nPjwvZz48ZyB0cmFuc2Zvcm09InRyYW5zbGF0ZSg0MjQuNjIyNzg3NDc1NTg1OTQsIDYxNS40MTk2NDM0MDIwOTk2KSIgaWQ9ImZsb3djaGFydC1GLTEwMCIgY2xhc3M9Im5vZGUgZGVmYXVsdCI+PHJlY3QgaGVpZ2h0PSI1NCIgd2lkdGg9IjI1OS45OTU1NDQ0MzM1OTM3NSIgeT0iLTI3IiB4PSItMTI5Ljk5Nzc3MjIxNjc5Njg4IiBzdHlsZT0iIiBjbGFzcz0iYmFzaWMgbGFiZWwtY29udGFpbmVyIj48L3JlY3Q+PGcgdHJhbnNmb3JtPSJ0cmFuc2xhdGUoLTk5Ljk5Nzc3MjIxNjc5Njg4LCAtMTIpIiBzdHlsZT0iIiBjbGFzcz0ibGFiZWwiPjxyZWN0PjwvcmVjdD48Zm9yZWlnbk9iamVjdCBoZWlnaHQ9IjI0IiB3aWR0aD0iMTk5Ljk5NTU0NDQzMzU5Mzc1Ij48ZGl2IHN0eWxlPSJkaXNwbGF5OiB0YWJsZS1jZWxsOyB3aGl0ZS1zcGFjZTogbm93cmFwOyBsaW5lLWhlaWdodDogMS41OyBtYXgtd2lkdGg6IDIwMHB4OyB0ZXh0LWFsaWduOiBjZW50ZXI7IiB4bWxucz0iaHR0cDovL3d3dy53My5vcmcvMTk5OS94aHRtbCI+PHNwYW4gY2xhc3M9Im5vZGVMYWJlbCI+PHA+UmVjZWl2ZSBydW50aW1lIGlkIGZyb20gcmVzcG9uc2U8L3A+PC9zcGFuPjwvZGl2PjwvZm9yZWlnbk9iamVjdD48L2c+PC9nPjxnIHRyYW5zZm9ybT0idHJhbnNsYXRlKDQyNC42MjI3ODc0NzU1ODU5NCwgNzE5LjQxOTY0MzQwMjA5OTYpIiBpZD0iZmxvd2NoYXJ0LUctMTAxIiBjbGFzcz0ibm9kZSBkZWZhdWx0Ij48cmVjdCBoZWlnaHQ9IjU0IiB3aWR0aD0iMjU5Ljk5NTU0NDQzMzU5Mzc1IiB5PSItMjciIHg9Ii0xMjkuOTk3NzcyMjE2Nzk2ODgiIHN0eWxlPSIiIGNsYXNzPSJiYXNpYyBsYWJlbC1jb250YWluZXIiPjwvcmVjdD48ZyB0cmFuc2Zvcm09InRyYW5zbGF0ZSgtOTkuOTk3NzcyMjE2Nzk2ODgsIC0xMikiIHN0eWxlPSIiIGNsYXNzPSJsYWJlbCI+PHJlY3Q+PC9yZWN0Pjxmb3JlaWduT2JqZWN0IGhlaWdodD0iMjQiIHdpZHRoPSIxOTkuOTk1NTQ0NDMzNTkzNzUiPjxkaXYgc3R5bGU9ImRpc3BsYXk6IHRhYmxlLWNlbGw7IHdoaXRlLXNwYWNlOiBub3dyYXA7IGxpbmUtaGVpZ2h0OiAxLjU7IG1heC13aWR0aDogMjAwcHg7IHRleHQtYWxpZ246IGNlbnRlcjsiIHhtbG5zPSJodHRwOi8vd3d3LnczLm9yZy8xOTk5L3hodG1sIj48c3BhbiBjbGFzcz0ibm9kZUxhYmVsIj48cD5TdG9yZSBydW50aW1lIGlkIG1hcHBpbmcgZ2xvYmFsbHk8L3A+PC9zcGFuPjwvZGl2PjwvZm9yZWlnbk9iamVjdD48L2c+PC9nPjxnIHRyYW5zZm9ybT0idHJhbnNsYXRlKDQyNC42MjI3ODc0NzU1ODU5NCwgODIzLjQxOTY0MzQwMjA5OTYpIiBpZD0iZmxvd2NoYXJ0LUgtMTAyIiBjbGFzcz0ibm9kZSBkZWZhdWx0Ij48cmVjdCBoZWlnaHQ9IjU0IiB3aWR0aD0iMjU5Ljk5NTU0NDQzMzU5Mzc1IiB5PSItMjciIHg9Ii0xMjkuOTk3NzcyMjE2Nzk2ODgiIHN0eWxlPSIiIGNsYXNzPSJiYXNpYyBsYWJlbC1jb250YWluZXIiPjwvcmVjdD48ZyB0cmFuc2Zvcm09InRyYW5zbGF0ZSgtOTkuOTk3NzcyMjE2Nzk2ODgsIC0xMikiIHN0eWxlPSIiIGNsYXNzPSJsYWJlbCI+PHJlY3Q+PC9yZWN0Pjxmb3JlaWduT2JqZWN0IGhlaWdodD0iMjQiIHdpZHRoPSIxOTkuOTk1NTQ0NDMzNTkzNzUiPjxkaXYgc3R5bGU9ImRpc3BsYXk6IHRhYmxlLWNlbGw7IHdoaXRlLXNwYWNlOiBub3dyYXA7IGxpbmUtaGVpZ2h0OiAxLjU7IG1heC13aWR0aDogMjAwcHg7IHRleHQtYWxpZ246IGNlbnRlcjsiIHhtbG5zPSJodHRwOi8vd3d3LnczLm9yZy8xOTk5L3hodG1sIj48c3BhbiBjbGFzcz0ibm9kZUxhYmVsIj48cD5DbGVhciBwcmV2aW91cyBjYWxsYmFjayByZXNwb25zZTwvcD48L3NwYW4+PC9kaXY+PC9mb3JlaWduT2JqZWN0PjwvZz48L2c+PGcgdHJhbnNmb3JtPSJ0cmFuc2xhdGUoNDI0LjYyMjc4NzQ3NTU4NTk0LCA5MjcuNDE5NjQzNDAyMDk5NikiIGlkPSJmbG93Y2hhcnQtSS0xMDMiIGNsYXNzPSJub2RlIGRlZmF1bHQiPjxyZWN0IGhlaWdodD0iNTQiIHdpZHRoPSIyNTkuOTk1NTQ0NDMzNTkzNzUiIHk9Ii0yNyIgeD0iLTEyOS45OTc3NzIyMTY3OTY4OCIgc3R5bGU9IiIgY2xhc3M9ImJhc2ljIGxhYmVsLWNvbnRhaW5lciI+PC9yZWN0PjxnIHRyYW5zZm9ybT0idHJhbnNsYXRlKC05OS45OTc3NzIyMTY3OTY4OCwgLTEyKSIgc3R5bGU9IiIgY2xhc3M9ImxhYmVsIj48cmVjdD48L3JlY3Q+PGZvcmVpZ25PYmplY3QgaGVpZ2h0PSIyNCIgd2lkdGg9IjE5OS45OTU1NDQ0MzM1OTM3NSI+PGRpdiBzdHlsZT0iZGlzcGxheTogdGFibGUtY2VsbDsgd2hpdGUtc3BhY2U6IG5vd3JhcDsgbGluZS1oZWlnaHQ6IDEuNTsgbWF4LXdpZHRoOiAyMDBweDsgdGV4dC1hbGlnbjogY2VudGVyOyIgeG1sbnM9Imh0dHA6Ly93d3cudzMub3JnLzE5OTkveGh0bWwiPjxzcGFuIGNsYXNzPSJub2RlTGFiZWwiPjxwPkRpc2FibGUgU21hcnQgQ2hhcmdlIHR1cm4gb2ZmPC9wPjwvc3Bhbj48L2Rpdj48L2ZvcmVpZ25PYmplY3Q+PC9nPjwvZz48ZyB0cmFuc2Zvcm09InRyYW5zbGF0ZSg0MjQuNjIyNzg3NDc1NTg1OTQsIDEwMzEuNDE5NjQzNDAyMDk5NikiIGlkPSJmbG93Y2hhcnQtSi0xMDQiIGNsYXNzPSJub2RlIGRlZmF1bHQiPjxyZWN0IGhlaWdodD0iNTQiIHdpZHRoPSIyNDMuOTkxMDczNjA4Mzk4NDQiIHk9Ii0yNyIgeD0iLTEyMS45OTU1MzY4MDQxOTkyMiIgc3R5bGU9IiIgY2xhc3M9ImJhc2ljIGxhYmVsLWNvbnRhaW5lciI+PC9yZWN0PjxnIHRyYW5zZm9ybT0idHJhbnNsYXRlKC05MS45OTU1MzY4MDQxOTkyMiwgLTEyKSIgc3R5bGU9IiIgY2xhc3M9ImxhYmVsIj48cmVjdD48L3JlY3Q+PGZvcmVpZ25PYmplY3QgaGVpZ2h0PSIyNCIgd2lkdGg9IjE4My45OTEwNzM2MDgzOTg0NCI+PGRpdiBzdHlsZT0iZGlzcGxheTogdGFibGUtY2VsbDsgd2hpdGUtc3BhY2U6IG5vd3JhcDsgbGluZS1oZWlnaHQ6IDEuNTsgbWF4LXdpZHRoOiAyMDBweDsgdGV4dC1hbGlnbjogY2VudGVyOyIgeG1sbnM9Imh0dHA6Ly93d3cudzMub3JnLzE5OTkveGh0bWwiPjxzcGFuIGNsYXNzPSJub2RlTGFiZWwiPjxwPkJlZ2luIHRhc2sgZXhlY3V0aW9uIGxvb3A8L3A+PC9zcGFuPjwvZGl2PjwvZm9yZWlnbk9iamVjdD48L2c+PC9nPjxnIHRyYW5zZm9ybT0idHJhbnNsYXRlKDQyNC42MjI3ODc0NzU1ODU5NCwgMTEzNS40MTk2NDM0MDIwOTk2KSIgaWQ9ImZsb3djaGFydC1LLTEwNSIgY2xhc3M9Im5vZGUgZGVmYXVsdCI+PHJlY3QgaGVpZ2h0PSI1NCIgd2lkdGg9IjE3NC4yODEyNSIgeT0iLTI3IiB4PSItODcuMTQwNjI1IiBzdHlsZT0iIiBjbGFzcz0iYmFzaWMgbGFiZWwtY29udGFpbmVyIj48L3JlY3Q+PGcgdHJhbnNmb3JtPSJ0cmFuc2xhdGUoLTU3LjE0MDYyNSwgLTEyKSIgc3R5bGU9IiIgY2xhc3M9ImxhYmVsIj48cmVjdD48L3JlY3Q+PGZvcmVpZ25PYmplY3QgaGVpZ2h0PSIyNCIgd2lkdGg9IjExNC4yODEyNSI+PGRpdiBzdHlsZT0iZGlzcGxheTogdGFibGUtY2VsbDsgd2hpdGUtc3BhY2U6IG5vd3JhcDsgbGluZS1oZWlnaHQ6IDEuNTsgbWF4LXdpZHRoOiAyMDBweDsgdGV4dC1hbGlnbjogY2VudGVyOyIgeG1sbnM9Imh0dHA6Ly93d3cudzMub3JnLzE5OTkveGh0bWwiPjxzcGFuIGNsYXNzPSJub2RlTGFiZWwiPjxwPldhaXQgMTAgc2Vjb25kczwvcD48L3NwYW4+PC9kaXY+PC9mb3JlaWduT2JqZWN0PjwvZz48L2c+PGcgdHJhbnNmb3JtPSJ0cmFuc2xhdGUoNDI0LjYyMjc4NzQ3NTU4NTk0LCAxMjM5LjQxOTY0MzQwMjA5OTYpIiBpZD0iZmxvd2NoYXJ0LUwtMTA2IiBjbGFzcz0ibm9kZSBkZWZhdWx0Ij48cmVjdCBoZWlnaHQ9IjU0IiB3aWR0aD0iMjU5Ljk5NTU0NDQzMzU5Mzc1IiB5PSItMjciIHg9Ii0xMjkuOTk3NzcyMjE2Nzk2ODgiIHN0eWxlPSIiIGNsYXNzPSJiYXNpYyBsYWJlbC1jb250YWluZXIiPjwvcmVjdD48ZyB0cmFuc2Zvcm09InRyYW5zbGF0ZSgtOTkuOTk3NzcyMjE2Nzk2ODgsIC0xMikiIHN0eWxlPSIiIGNsYXNzPSJsYWJlbCI+PHJlY3Q+PC9yZWN0Pjxmb3JlaWduT2JqZWN0IGhlaWdodD0iMjQiIHdpZHRoPSIxOTkuOTk1NTQ0NDMzNTkzNzUiPjxkaXYgc3R5bGU9ImRpc3BsYXk6IHRhYmxlLWNlbGw7IHdoaXRlLXNwYWNlOiBub3dyYXA7IGxpbmUtaGVpZ2h0OiAxLjU7IG1heC13aWR0aDogMjAwcHg7IHRleHQtYWxpZ246IGNlbnRlcjsiIHhtbG5zPSJodHRwOi8vd3d3LnczLm9yZy8xOTk5L3hodG1sIj48c3BhbiBjbGFzcz0ibm9kZUxhYmVsIj48cD5HZXQgY2FsbGJhY2sgcmVzcG9uc2UgdXNpbmcgcnVudGltZSBpZDwvcD48L3NwYW4+PC9kaXY+PC9mb3JlaWduT2JqZWN0PjwvZz48L2c+PGcgdHJhbnNmb3JtPSJ0cmFuc2xhdGUoNDI0LjYyMjc4NzQ3NTU4NTk0LCAxNDQzLjQxNzQxNTYxODg5NjUpIiBpZD0iZmxvd2NoYXJ0LU0tMTA3IiBjbGFzcz0ibm9kZSBkZWZhdWx0Ij48cG9seWdvbiB0cmFuc2Zvcm09InRyYW5zbGF0ZSgtMTI2Ljk5Nzc3MjIxNjc5Njg4LDEyNi45OTc3NzIyMTY3OTY4OCkiIGNsYXNzPSJsYWJlbC1jb250YWluZXIiIHBvaW50cz0iMTI2Ljk5Nzc3MjIxNjc5Njg4LDAgMjUzLjk5NTU0NDQzMzU5Mzc1LC0xMjYuOTk3NzcyMjE2Nzk2ODggMTI2Ljk5Nzc3MjIxNjc5Njg4LC0yNTMuOTk1NTQ0NDMzNTkzNzUgMCwtMTI2Ljk5Nzc3MjIxNjc5Njg4Ij48L3BvbHlnb24+PGcgdHJhbnNmb3JtPSJ0cmFuc2xhdGUoLTk5Ljk5Nzc3MjIxNjc5Njg4LCAtMTIpIiBzdHlsZT0iIiBjbGFzcz0ibGFiZWwiPjxyZWN0PjwvcmVjdD48Zm9yZWlnbk9iamVjdCBoZWlnaHQ9IjI0IiB3aWR0aD0iMTk5Ljk5NTU0NDQzMzU5Mzc1Ij48ZGl2IHN0eWxlPSJkaXNwbGF5OiB0YWJsZS1jZWxsOyB3aGl0ZS1zcGFjZTogbm93cmFwOyBsaW5lLWhlaWdodDogMS41OyBtYXgtd2lkdGg6IDIwMHB4OyB0ZXh0LWFsaWduOiBjZW50ZXI7IiB4bWxucz0iaHR0cDovL3d3dy53My5vcmcvMTk5OS94aHRtbCI+PHNwYW4gY2xhc3M9Im5vZGVMYWJlbCI+PHA+Q2FsbGJhY2sgcmVzcG9uc2UgZXF1YWxzIFN1Y2Nlc3M/PC9wPjwvc3Bhbj48L2Rpdj48L2ZvcmVpZ25PYmplY3Q+PC9nPjwvZz48ZyB0cmFuc2Zvcm09InRyYW5zbGF0ZSg2NDYuMjc2ODEzNTA3MDgwMSwgMTY3MC4yNzIzMzEyMzc3OTMpIiBpZD0iZmxvd2NoYXJ0LU4tMTA4IiBjbGFzcz0ibm9kZSBkZWZhdWx0Ij48cmVjdCBoZWlnaHQ9IjU0IiB3aWR0aD0iMjU5Ljk5NTU0NDQzMzU5Mzc1IiB5PSItMjciIHg9Ii0xMjkuOTk3NzcyMjE2Nzk2ODgiIHN0eWxlPSIiIGNsYXNzPSJiYXNpYyBsYWJlbC1jb250YWluZXIiPjwvcmVjdD48ZyB0cmFuc2Zvcm09InRyYW5zbGF0ZSgtOTkuOTk3NzcyMjE2Nzk2ODgsIC0xMikiIHN0eWxlPSIiIGNsYXNzPSJsYWJlbCI+PHJlY3Q+PC9yZWN0Pjxmb3JlaWduT2JqZWN0IGhlaWdodD0iMjQiIHdpZHRoPSIxOTkuOTk1NTQ0NDMzNTkzNzUiPjxkaXYgc3R5bGU9ImRpc3BsYXk6IHRhYmxlLWNlbGw7IHdoaXRlLXNwYWNlOiBub3dyYXA7IGxpbmUtaGVpZ2h0OiAxLjU7IG1heC13aWR0aDogMjAwcHg7IHRleHQtYWxpZ246IGNlbnRlcjsiIHhtbG5zPSJodHRwOi8vd3d3LnczLm9yZy8xOTk5L3hodG1sIj48c3BhbiBjbGFzcz0ibm9kZUxhYmVsIj48cD5VcGRhdGUgdGFzayBzdGF0dXMgdG8gQ09NUExFVEVEPC9wPjwvc3Bhbj48L2Rpdj48L2ZvcmVpZ25PYmplY3Q+PC9nPjwvZz48ZyB0cmFuc2Zvcm09InRyYW5zbGF0ZSg2NDYuMjc2ODEzNTA3MDgwMSwgMTc3NC4yNzIzMzEyMzc3OTMpIiBpZD0iZmxvd2NoYXJ0LU8tMTA5IiBjbGFzcz0ibm9kZSBkZWZhdWx0Ij48cmVjdCBoZWlnaHQ9IjU0IiB3aWR0aD0iMjU5Ljk5NTU0NDQzMzU5Mzc1IiB5PSItMjciIHg9Ii0xMjkuOTk3NzcyMjE2Nzk2ODgiIHN0eWxlPSIiIGNsYXNzPSJiYXNpYyBsYWJlbC1jb250YWluZXIiPjwvcmVjdD48ZyB0cmFuc2Zvcm09InRyYW5zbGF0ZSgtOTkuOTk3NzcyMjE2Nzk2ODgsIC0xMikiIHN0eWxlPSIiIGNsYXNzPSJsYWJlbCI+PHJlY3Q+PC9yZWN0Pjxmb3JlaWduT2JqZWN0IGhlaWdodD0iMjQiIHdpZHRoPSIxOTkuOTk1NTQ0NDMzNTkzNzUiPjxkaXYgc3R5bGU9ImRpc3BsYXk6IHRhYmxlLWNlbGw7IHdoaXRlLXNwYWNlOiBub3dyYXA7IGxpbmUtaGVpZ2h0OiAxLjU7IG1heC13aWR0aDogMjAwcHg7IHRleHQtYWxpZ246IGNlbnRlcjsiIHhtbG5zPSJodHRwOi8vd3d3LnczLm9yZy8xOTk5L3hodG1sIj48c3BhbiBjbGFzcz0ibm9kZUxhYmVsIj48cD5Mb2cgdGFzayBjb21wbGV0aW9uIGFuZCBleGl0IGxvb3A8L3A+PC9zcGFuPjwvZGl2PjwvZm9yZWlnbk9iamVjdD48L2c+PC9nPjxnIHRyYW5zZm9ybT0idHJhbnNsYXRlKDMzNi4yODEyNjkwNzM0ODYzLCAxNjcwLjI3MjMzMTIzNzc5MykiIGlkPSJmbG93Y2hhcnQtUC0xMTAiIGNsYXNzPSJub2RlIGRlZmF1bHQiPjxyZWN0IGhlaWdodD0iNTQiIHdpZHRoPSIyNTkuOTk1NTQ0NDMzNTkzNzUiIHk9Ii0yNyIgeD0iLTEyOS45OTc3NzIyMTY3OTY4OCIgc3R5bGU9IiIgY2xhc3M9ImJhc2ljIGxhYmVsLWNvbnRhaW5lciI+PC9yZWN0PjxnIHRyYW5zZm9ybT0idHJhbnNsYXRlKC05OS45OTc3NzIyMTY3OTY4OCwgLTEyKSIgc3R5bGU9IiIgY2xhc3M9ImxhYmVsIj48cmVjdD48L3JlY3Q+PGZvcmVpZ25PYmplY3QgaGVpZ2h0PSIyNCIgd2lkdGg9IjE5OS45OTU1NDQ0MzM1OTM3NSI+PGRpdiBzdHlsZT0iZGlzcGxheTogdGFibGUtY2VsbDsgd2hpdGUtc3BhY2U6IG5vd3JhcDsgbGluZS1oZWlnaHQ6IDEuNTsgbWF4LXdpZHRoOiAyMDBweDsgdGV4dC1hbGlnbjogY2VudGVyOyIgeG1sbnM9Imh0dHA6Ly93d3cudzMub3JnLzE5OTkveGh0bWwiPjxzcGFuIGNsYXNzPSJub2RlTGFiZWwiPjxwPkxvZyB3YWl0aW5nIHN0YXR1cyBhbmQgY29udGludWUgbG9vcDwvcD48L3NwYW4+PC9kaXY+PC9mb3JlaWduT2JqZWN0PjwvZz48L2c+PGcgdHJhbnNmb3JtPSJ0cmFuc2xhdGUoMzM2LjI4MTI2OTA3MzQ4NjMsIDE3NzQuMjcyMzMxMjM3NzkzKSIgaWQ9ImZsb3djaGFydC1RLTExMSIgY2xhc3M9Im5vZGUgZGVmYXVsdCI+PHJlY3QgaGVpZ2h0PSI1NCIgd2lkdGg9IjI1OS45OTU1NDQ0MzM1OTM3NSIgeT0iLTI3IiB4PSItMTI5Ljk5Nzc3MjIxNjc5Njg4IiBzdHlsZT0iIiBjbGFzcz0iYmFzaWMgbGFiZWwtY29udGFpbmVyIj48L3JlY3Q+PGcgdHJhbnNmb3JtPSJ0cmFuc2xhdGUoLTk5Ljk5Nzc3MjIxNjc5Njg4LCAtMTIpIiBzdHlsZT0iIiBjbGFzcz0ibGFiZWwiPjxyZWN0PjwvcmVjdD48Zm9yZWlnbk9iamVjdCBoZWlnaHQ9IjI0IiB3aWR0aD0iMTk5Ljk5NTU0NDQzMzU5Mzc1Ij48ZGl2IHN0eWxlPSJkaXNwbGF5OiB0YWJsZS1jZWxsOyB3aGl0ZS1zcGFjZTogbm93cmFwOyBsaW5lLWhlaWdodDogMS41OyBtYXgtd2lkdGg6IDIwMHB4OyB0ZXh0LWFsaWduOiBjZW50ZXI7IiB4bWxucz0iaHR0cDovL3d3dy53My5vcmcvMTk5OS94aHRtbCI+PHNwYW4gY2xhc3M9Im5vZGVMYWJlbCI+PHA+R2V0IEFNUiBzdGF0dXMgdmlhIHZlaGljbGVzIEFQSTwvcD48L3NwYW4+PC9kaXY+PC9mb3JlaWduT2JqZWN0PjwvZz48L2c+PGcgdHJhbnNmb3JtPSJ0cmFuc2xhdGUoMzM2LjI4MTI2OTA3MzQ4NjMsIDE5MzcuMDkzNzY1MjU4Nzg5KSIgaWQ9ImZsb3djaGFydC1SLTExMiIgY2xhc3M9Im5vZGUgZGVmYXVsdCI+PHBvbHlnb24gdHJhbnNmb3JtPSJ0cmFuc2xhdGUoLTg1LjgyMTQzMDIwNjI5ODgzLDg1LjgyMTQzMDIwNjI5ODgzKSIgY2xhc3M9ImxhYmVsLWNvbnRhaW5lciIgcG9pbnRzPSI4NS44MjE0MzAyMDYyOTg4MywwIDE3MS42NDI4NjA0MTI1OTc2NiwtODUuODIxNDMwMjA2Mjk4ODMgODUuODIxNDMwMjA2Mjk4ODMsLTE3MS42NDI4NjA0MTI1OTc2NiAwLC04NS44MjE0MzAyMDYyOTg4MyI+PC9wb2x5Z29uPjxnIHRyYW5zZm9ybT0idHJhbnNsYXRlKC01OC44MjE0MzAyMDYyOTg4MywgLTEyKSIgc3R5bGU9IiIgY2xhc3M9ImxhYmVsIj48cmVjdD48L3JlY3Q+PGZvcmVpZ25PYmplY3QgaGVpZ2h0PSIyNCIgd2lkdGg9IjExNy42NDI4NjA0MTI1OTc2NiI+PGRpdiBzdHlsZT0iZGlzcGxheTogdGFibGUtY2VsbDsgd2hpdGUtc3BhY2U6IG5vd3JhcDsgbGluZS1oZWlnaHQ6IDEuNTsgbWF4LXdpZHRoOiAyMDBweDsgdGV4dC1hbGlnbjogY2VudGVyOyIgeG1sbnM9Imh0dHA6Ly93d3cudzMub3JnLzE5OTkveGh0bWwiPjxzcGFuIGNsYXNzPSJub2RlTGFiZWwiPjxwPklzIGJhdHRlcnkgJmx0Oz0gMTA/PC9wPjwvc3Bhbj48L2Rpdj48L2ZvcmVpZ25PYmplY3Q+PC9nPjwvZz48ZyB0cmFuc2Zvcm09InRyYW5zbGF0ZSgyNTkuNjI1MDE1MjU4Nzg5MDYsIDIxODEuNTkzNzc2NzAyODgxKSIgaWQ9ImZsb3djaGFydC1TLTExMyIgY2xhc3M9Im5vZGUgZGVmYXVsdCI+PHJlY3QgaGVpZ2h0PSI1NCIgd2lkdGg9IjI1OS45OTU1NDQ0MzM1OTM3NSIgeT0iLTI3IiB4PSItMTI5Ljk5Nzc3MjIxNjc5Njg4IiBzdHlsZT0iIiBjbGFzcz0iYmFzaWMgbGFiZWwtY29udGFpbmVyIj48L3JlY3Q+PGcgdHJhbnNmb3JtPSJ0cmFuc2xhdGUoLTk5Ljk5Nzc3MjIxNjc5Njg4LCAtMTIpIiBzdHlsZT0iIiBjbGFzcz0ibGFiZWwiPjxyZWN0PjwvcmVjdD48Zm9yZWlnbk9iamVjdCBoZWlnaHQ9IjI0IiB3aWR0aD0iMTk5Ljk5NTU0NDQzMzU5Mzc1Ij48ZGl2IHN0eWxlPSJkaXNwbGF5OiB0YWJsZS1jZWxsOyB3aGl0ZS1zcGFjZTogbm93cmFwOyBsaW5lLWhlaWdodDogMS41OyBtYXgtd2lkdGg6IDIwMHB4OyB0ZXh0LWFsaWduOiBjZW50ZXI7IiB4bWxucz0iaHR0cDovL3d3dy53My5vcmcvMTk5OS94aHRtbCI+PHNwYW4gY2xhc3M9Im5vZGVMYWJlbCI+PHA+UmV0cmlldmUgU01BUlRfQ0hBUkdFIGNvbmZpZ3VyYXRpb248L3A+PC9zcGFuPjwvZGl2PjwvZm9yZWlnbk9iamVjdD48L2c+PC9nPjxnIHRyYW5zZm9ybT0idHJhbnNsYXRlKDI1OS42MjUwMTUyNTg3ODkwNiwgMjM2Ny4yNzIzNTQxMjU5NzY2KSIgaWQ9ImZsb3djaGFydC1ULTExNCIgY2xhc3M9Im5vZGUgZGVmYXVsdCI+PHJlY3QgaGVpZ2h0PSI1NCIgd2lkdGg9IjI1OS45OTU1NDQ0MzM1OTM3NSIgeT0iLTI3IiB4PSItMTI5Ljk5Nzc3MjIxNjc5Njg4IiBzdHlsZT0iIiBjbGFzcz0iYmFzaWMgbGFiZWwtY29udGFpbmVyIj48L3JlY3Q+PGcgdHJhbnNmb3JtPSJ0cmFuc2xhdGUoLTk5Ljk5Nzc3MjIxNjc5Njg4LCAtMTIpIiBzdHlsZT0iIiBjbGFzcz0ibGFiZWwiPjxyZWN0PjwvcmVjdD48Zm9yZWlnbk9iamVjdCBoZWlnaHQ9IjI0IiB3aWR0aD0iMTk5Ljk5NTU0NDQzMzU5Mzc1Ij48ZGl2IHN0eWxlPSJkaXNwbGF5OiB0YWJsZS1jZWxsOyB3aGl0ZS1zcGFjZTogbm93cmFwOyBsaW5lLWhlaWdodDogMS41OyBtYXgtd2lkdGg6IDIwMHB4OyB0ZXh0LWFsaWduOiBjZW50ZXI7IiB4bWxucz0iaHR0cDovL3d3dy53My5vcmcvMTk5OS94aHRtbCI+PHNwYW4gY2xhc3M9Im5vZGVMYWJlbCI+PHA+V2FpdCB1bnRpbCBiYXR0ZXJ5IGlzIGNoYXJnZWQgdG8gY2FuQ2hhcmdlQmF0dGVyeVZhbHVlIHBlcmNlbnQ8L3A+PC9zcGFuPjwvZGl2PjwvZm9yZWlnbk9iamVjdD48L2c+PC9nPjxnIHRyYW5zZm9ybT0idHJhbnNsYXRlKDMzNi4yODEyNjkwNzM0ODYzLCAyNDcxLjI3MjM1NDEyNTk3NjYpIiBpZD0iZmxvd2NoYXJ0LVUtMTE1IiBjbGFzcz0ibm9kZSBkZWZhdWx0Ij48cmVjdCBoZWlnaHQ9IjU0IiB3aWR0aD0iMjU5Ljk5NTU0NDQzMzU5Mzc1IiB5PSItMjciIHg9Ii0xMjkuOTk3NzcyMjE2Nzk2ODgiIHN0eWxlPSIiIGNsYXNzPSJiYXNpYyBsYWJlbC1jb250YWluZXIiPjwvcmVjdD48ZyB0cmFuc2Zvcm09InRyYW5zbGF0ZSgtOTkuOTk3NzcyMjE2Nzk2ODgsIC0xMikiIHN0eWxlPSIiIGNsYXNzPSJsYWJlbCI+PHJlY3Q+PC9yZWN0Pjxmb3JlaWduT2JqZWN0IGhlaWdodD0iMjQiIHdpZHRoPSIxOTkuOTk1NTQ0NDMzNTkzNzUiPjxkaXYgc3R5bGU9ImRpc3BsYXk6IHRhYmxlLWNlbGw7IHdoaXRlLXNwYWNlOiBub3dyYXA7IGxpbmUtaGVpZ2h0OiAxLjU7IG1heC13aWR0aDogMjAwcHg7IHRleHQtYWxpZ246IGNlbnRlcjsiIHhtbG5zPSJodHRwOi8vd3d3LnczLm9yZy8xOTk5L3hodG1sIj48c3BhbiBjbGFzcz0ibm9kZUxhYmVsIj48cD5DaGVjayBBTVIgd29ya1N0YXR1cyBhbmQgYWJub3JtYWxTdGF0dXM8L3A+PC9zcGFuPjwvZGl2PjwvZm9yZWlnbk9iamVjdD48L2c+PC9nPjxnIHRyYW5zZm9ybT0idHJhbnNsYXRlKDMzNi4yODEyNjkwNzM0ODYzLCAyNjc1LjI3MDEyNjM0Mjc3MzQpIiBpZD0iZmxvd2NoYXJ0LVYtMTE2IiBjbGFzcz0ibm9kZSBkZWZhdWx0Ij48cG9seWdvbiB0cmFuc2Zvcm09InRyYW5zbGF0ZSgtMTI2Ljk5Nzc3MjIxNjc5Njg4LDEyNi45OTc3NzIyMTY3OTY4OCkiIGNsYXNzPSJsYWJlbC1jb250YWluZXIiIHBvaW50cz0iMTI2Ljk5Nzc3MjIxNjc5Njg4LDAgMjUzLjk5NTU0NDQzMzU5Mzc1LC0xMjYuOTk3NzcyMjE2Nzk2ODggMTI2Ljk5Nzc3MjIxNjc5Njg4LC0yNTMuOTk1NTQ0NDMzNTkzNzUgMCwtMTI2Ljk5Nzc3MjIxNjc5Njg4Ij48L3BvbHlnb24+PGcgdHJhbnNmb3JtPSJ0cmFuc2xhdGUoLTk5Ljk5Nzc3MjIxNjc5Njg4LCAtMTIpIiBzdHlsZT0iIiBjbGFzcz0ibGFiZWwiPjxyZWN0PjwvcmVjdD48Zm9yZWlnbk9iamVjdCBoZWlnaHQ9IjI0IiB3aWR0aD0iMTk5Ljk5NTU0NDQzMzU5Mzc1Ij48ZGl2IHN0eWxlPSJkaXNwbGF5OiB0YWJsZS1jZWxsOyB3aGl0ZS1zcGFjZTogbm93cmFwOyBsaW5lLWhlaWdodDogMS41OyBtYXgtd2lkdGg6IDIwMHB4OyB0ZXh0LWFsaWduOiBjZW50ZXI7IiB4bWxucz0iaHR0cDovL3d3dy53My5vcmcvMTk5OS94aHRtbCI+PHNwYW4gY2xhc3M9Im5vZGVMYWJlbCI+PHA+QU1SIGlzIG5vcm1hbD8gd29ya1N0YXR1cyBlcXVhbHMgMSBhbmQgYWJub3JtYWxTdGF0dXMgZXF1YWxzIDE8L3A+PC9zcGFuPjwvZGl2PjwvZm9yZWlnbk9iamVjdD48L2c+PC9nPjxnIHRyYW5zZm9ybT0idHJhbnNsYXRlKDE4Ny4xMjYxMjkxNTAzOTA2MiwgMjkwMi4xMjUwNDE5NjE2NykiIGlkPSJmbG93Y2hhcnQtVy0xMTciIGNsYXNzPSJub2RlIGRlZmF1bHQiPjxyZWN0IGhlaWdodD0iNTQiIHdpZHRoPSIyNTkuOTk1NTQ0NDMzNTkzNzUiIHk9Ii0yNyIgeD0iLTEyOS45OTc3NzIyMTY3OTY4OCIgc3R5bGU9IiIgY2xhc3M9ImJhc2ljIGxhYmVsLWNvbnRhaW5lciI+PC9yZWN0PjxnIHRyYW5zZm9ybT0idHJhbnNsYXRlKC05OS45OTc3NzIyMTY3OTY4OCwgLTEyKSIgc3R5bGU9IiIgY2xhc3M9ImxhYmVsIj48cmVjdD48L3JlY3Q+PGZvcmVpZ25PYmplY3QgaGVpZ2h0PSIyNCIgd2lkdGg9IjE5OS45OTU1NDQ0MzM1OTM3NSI+PGRpdiBzdHlsZT0iZGlzcGxheTogdGFibGUtY2VsbDsgd2hpdGUtc3BhY2U6IG5vd3JhcDsgbGluZS1oZWlnaHQ6IDEuNTsgbWF4LXdpZHRoOiAyMDBweDsgdGV4dC1hbGlnbjogY2VudGVyOyIgeG1sbnM9Imh0dHA6Ly93d3cudzMub3JnLzE5OTkveGh0bWwiPjxzcGFuIGNsYXNzPSJub2RlTGFiZWwiPjxwPkNhbGwgUmVzdW1lIFRhc2sgQVBJIHdpdGggcnVudGltZSBpZDwvcD48L3NwYW4+PC9kaXY+PC9mb3JlaWduT2JqZWN0PjwvZz48L2c+PGcgdHJhbnNmb3JtPSJ0cmFuc2xhdGUoNTk1LjMxODEwNDI2NzEyMDQsIDI5MDIuMTI1MDQxOTYxNjcpIiBpZD0iZmxvd2NoYXJ0LVgtMTE4IiBjbGFzcz0ibm9kZSBkZWZhdWx0Ij48cmVjdCBoZWlnaHQ9IjU0IiB3aWR0aD0iMjU5Ljk5NTU0NDQzMzU5Mzc1IiB5PSItMjciIHg9Ii0xMjkuOTk3NzcyMjE2Nzk2ODgiIHN0eWxlPSIiIGNsYXNzPSJiYXNpYyBsYWJlbC1jb250YWluZXIiPjwvcmVjdD48ZyB0cmFuc2Zvcm09InRyYW5zbGF0ZSgtOTkuOTk3NzcyMjE2Nzk2ODgsIC0xMikiIHN0eWxlPSIiIGNsYXNzPSJsYWJlbCI+PHJlY3Q+PC9yZWN0Pjxmb3JlaWduT2JqZWN0IGhlaWdodD0iMjQiIHdpZHRoPSIxOTkuOTk1NTQ0NDMzNTkzNzUiPjxkaXYgc3R5bGU9ImRpc3BsYXk6IHRhYmxlLWNlbGw7IHdoaXRlLXNwYWNlOiBub3dyYXA7IGxpbmUtaGVpZ2h0OiAxLjU7IG1heC13aWR0aDogMjAwcHg7IHRleHQtYWxpZ246IGNlbnRlcjsiIHhtbG5zPSJodHRwOi8vd3d3LnczLm9yZy8xOTk5L3hodG1sIj48c3BhbiBjbGFzcz0ibm9kZUxhYmVsIj48cD5DYWxsIFBhdXNlIFRhc2sgQVBJIHdpdGggcnVudGltZSBpZDwvcD48L3NwYW4+PC9kaXY+PC9mb3JlaWduT2JqZWN0PjwvZz48L2c+PGcgdHJhbnNmb3JtPSJ0cmFuc2xhdGUoNTk1LjMxODEwNDI2NzEyMDQsIDMwMDYuMTI1MDQxOTYxNjcpIiBpZD0iZmxvd2NoYXJ0LVktMTE5IiBjbGFzcz0ibm9kZSBkZWZhdWx0Ij48cmVjdCBoZWlnaHQ9IjU0IiB3aWR0aD0iMjU5Ljk5NTU0NDQzMzU5Mzc1IiB5PSItMjciIHg9Ii0xMjkuOTk3NzcyMjE2Nzk2ODgiIHN0eWxlPSIiIGNsYXNzPSJiYXNpYyBsYWJlbC1jb250YWluZXIiPjwvcmVjdD48ZyB0cmFuc2Zvcm09InRyYW5zbGF0ZSgtOTkuOTk3NzcyMjE2Nzk2ODgsIC0xMikiIHN0eWxlPSIiIGNsYXNzPSJsYWJlbCI+PHJlY3Q+PC9yZWN0Pjxmb3JlaWduT2JqZWN0IGhlaWdodD0iMjQiIHdpZHRoPSIxOTkuOTk1NTQ0NDMzNTkzNzUiPjxkaXYgc3R5bGU9ImRpc3BsYXk6IHRhYmxlLWNlbGw7IHdoaXRlLXNwYWNlOiBub3dyYXA7IGxpbmUtaGVpZ2h0OiAxLjU7IG1heC13aWR0aDogMjAwcHg7IHRleHQtYWxpZ246IGNlbnRlcjsiIHhtbG5zPSJodHRwOi8vd3d3LnczLm9yZy8xOTk5L3hodG1sIj48c3BhbiBjbGFzcz0ibm9kZUxhYmVsIj48cD5Mb29wIGJhY2sgdG8gdGFzayBleGVjdXRpb24gbG9vcDwvcD48L3NwYW4+PC9kaXY+PC9mb3JlaWduT2JqZWN0PjwvZz48L2c+PGcgdHJhbnNmb3JtPSJ0cmFuc2xhdGUoNjQ2LjI3NjgxMzUwNzA4MDEsIDE5MzcuMDkzNzY1MjU4Nzg5KSIgaWQ9ImZsb3djaGFydC1aLTEyMCIgY2xhc3M9Im5vZGUgZGVmYXVsdCI+PHJlY3QgaGVpZ2h0PSI1NCIgd2lkdGg9IjI1OS45OTU1NDQ0MzM1OTM3NSIgeT0iLTI3IiB4PSItMTI5Ljk5Nzc3MjIxNjc5Njg4IiBzdHlsZT0iIiBjbGFzcz0iYmFzaWMgbGFiZWwtY29udGFpbmVyIj48L3JlY3Q+PGcgdHJhbnNmb3JtPSJ0cmFuc2xhdGUoLTk5Ljk5Nzc3MjIxNjc5Njg4LCAtMTIpIiBzdHlsZT0iIiBjbGFzcz0ibGFiZWwiPjxyZWN0PjwvcmVjdD48Zm9yZWlnbk9iamVjdCBoZWlnaHQ9IjI0IiB3aWR0aD0iMTk5Ljk5NTU0NDQzMzU5Mzc1Ij48ZGl2IHN0eWxlPSJkaXNwbGF5OiB0YWJsZS1jZWxsOyB3aGl0ZS1zcGFjZTogbm93cmFwOyBsaW5lLWhlaWdodDogMS41OyBtYXgtd2lkdGg6IDIwMHB4OyB0ZXh0LWFsaWduOiBjZW50ZXI7IiB4bWxucz0iaHR0cDovL3d3dy53My5vcmcvMTk5OS94aHRtbCI+PHNwYW4gY2xhc3M9Im5vZGVMYWJlbCI+PHA+QWZ0ZXIgdGFzayBjb21wbGV0ZXMsIGNoZWNrIGJhdHRlcnkgbGV2ZWw8L3A+PC9zcGFuPjwvZGl2PjwvZm9yZWlnbk9iamVjdD48L2c+PC9nPjxnIHRyYW5zZm9ybT0idHJhbnNsYXRlKDY0Ni4yNzY4MTM1MDcwODAxLCAyMTgxLjU5Mzc3NjcwMjg4MSkiIGlkPSJmbG93Y2hhcnQtQUEtMTIxIiBjbGFzcz0ibm9kZSBkZWZhdWx0Ij48cG9seWdvbiB0cmFuc2Zvcm09InRyYW5zbGF0ZSgtODUuODIxNDMwMjA2Mjk4ODMsODUuODIxNDMwMjA2Mjk4ODMpIiBjbGFzcz0ibGFiZWwtY29udGFpbmVyIiBwb2ludHM9Ijg1LjgyMTQzMDIwNjI5ODgzLDAgMTcxLjY0Mjg2MDQxMjU5NzY2LC04NS44MjE0MzAyMDYyOTg4MyA4NS44MjE0MzAyMDYyOTg4MywtMTcxLjY0Mjg2MDQxMjU5NzY2IDAsLTg1LjgyMTQzMDIwNjI5ODgzIj48L3BvbHlnb24+PGcgdHJhbnNmb3JtPSJ0cmFuc2xhdGUoLTU4LjgyMTQzMDIwNjI5ODgzLCAtMTIpIiBzdHlsZT0iIiBjbGFzcz0ibGFiZWwiPjxyZWN0PjwvcmVjdD48Zm9yZWlnbk9iamVjdCBoZWlnaHQ9IjI0IiB3aWR0aD0iMTE3LjY0Mjg2MDQxMjU5NzY2Ij48ZGl2IHN0eWxlPSJkaXNwbGF5OiB0YWJsZS1jZWxsOyB3aGl0ZS1zcGFjZTogbm93cmFwOyBsaW5lLWhlaWdodDogMS41OyBtYXgtd2lkdGg6IDIwMHB4OyB0ZXh0LWFsaWduOiBjZW50ZXI7IiB4bWxucz0iaHR0cDovL3d3dy53My5vcmcvMTk5OS94aHRtbCI+PHNwYW4gY2xhc3M9Im5vZGVMYWJlbCI+PHA+SXMgYmF0dGVyeSAmbHQ7PSA1MD88L3A+PC9zcGFuPjwvZGl2PjwvZm9yZWlnbk9iamVjdD48L2c+PC9nPjxnIHRyYW5zZm9ybT0idHJhbnNsYXRlKDc0MC4zMTU4NzY0ODM5MTcyLCAyMzY3LjI3MjM1NDEyNTk3NjYpIiBpZD0iZmxvd2NoYXJ0LUFCLTEyMiIgY2xhc3M9Im5vZGUgZGVmYXVsdCI+PHJlY3QgaGVpZ2h0PSI1NCIgd2lkdGg9IjI1OS45OTU1NDQ0MzM1OTM3NSIgeT0iLTI3IiB4PSItMTI5Ljk5Nzc3MjIxNjc5Njg4IiBzdHlsZT0iIiBjbGFzcz0iYmFzaWMgbGFiZWwtY29udGFpbmVyIj48L3JlY3Q+PGcgdHJhbnNmb3JtPSJ0cmFuc2xhdGUoLTk5Ljk5Nzc3MjIxNjc5Njg4LCAtMTIpIiBzdHlsZT0iIiBjbGFzcz0ibGFiZWwiPjxyZWN0PjwvcmVjdD48Zm9yZWlnbk9iamVjdCBoZWlnaHQ9IjI0IiB3aWR0aD0iMTk5Ljk5NTU0NDQzMzU5Mzc1Ij48ZGl2IHN0eWxlPSJkaXNwbGF5OiB0YWJsZS1jZWxsOyB3aGl0ZS1zcGFjZTogbm93cmFwOyBsaW5lLWhlaWdodDogMS41OyBtYXgtd2lkdGg6IDIwMHB4OyB0ZXh0LWFsaWduOiBjZW50ZXI7IiB4bWxucz0iaHR0cDovL3d3dy53My5vcmcvMTk5OS94aHRtbCI+PHNwYW4gY2xhc3M9Im5vZGVMYWJlbCI+PHA+RW5hYmxlIFNtYXJ0IENoYXJnZSB0dXJuIG9uPC9wPjwvc3Bhbj48L2Rpdj48L2ZvcmVpZ25PYmplY3Q+PC9nPjwvZz48ZyB0cmFuc2Zvcm09InRyYW5zbGF0ZSg2NjcuOTYyMDc4MDk0NDgyNCwgMjQ3MS4yNzIzNTQxMjU5NzY2KSIgaWQ9ImZsb3djaGFydC1BQy0xMjMiIGNsYXNzPSJub2RlIGRlZmF1bHQiPjxyZWN0IGhlaWdodD0iNTQiIHdpZHRoPSIyNTkuOTk1NTQ0NDMzNTkzNzUiIHk9Ii0yNyIgeD0iLTEyOS45OTc3NzIyMTY3OTY4OCIgc3R5bGU9IiIgY2xhc3M9ImJhc2ljIGxhYmVsLWNvbnRhaW5lciI+PC9yZWN0PjxnIHRyYW5zZm9ybT0idHJhbnNsYXRlKC05OS45OTc3NzIyMTY3OTY4OCwgLTEyKSIgc3R5bGU9IiIgY2xhc3M9ImxhYmVsIj48cmVjdD48L3JlY3Q+PGZvcmVpZ25PYmplY3QgaGVpZ2h0PSIyNCIgd2lkdGg9IjE5OS45OTU1NDQ0MzM1OTM3NSI+PGRpdiBzdHlsZT0iZGlzcGxheTogdGFibGUtY2VsbDsgd2hpdGUtc3BhY2U6IG5vd3JhcDsgbGluZS1oZWlnaHQ6IDEuNTsgbWF4LXdpZHRoOiAyMDBweDsgdGV4dC1hbGlnbjogY2VudGVyOyIgeG1sbnM9Imh0dHA6Ly93d3cudzMub3JnLzE5OTkveGh0bWwiPjxzcGFuIGNsYXNzPSJub2RlTGFiZWwiPjxwPkNvbnRpbnVlIG1vbml0b3JpbmcgZm9yIG5ldyB0YXNrczwvcD48L3NwYW4+PC9kaXY+PC9mb3JlaWduT2JqZWN0PjwvZz48L2c+PC9nPjwvZz48L2c+PC9zdmc+;" vertex="1" parent="1">
                        <mxGeometry x="-2790" y="-3120" width="933.3140258789062" height="3041.125" as="geometry"/>
                    </mxCell>
                </UserObject>
            </root>
        </mxGraphModel>
    </diagram>
</mxfile>